<svg width="91" height="91" viewBox="0 0 91 91" fill="none" xmlns="http://www.w3.org/2000/svg">
<path d="M46.2506 37.4928C41.7787 37.4928 38.1717 41.0998 38.1717 45.5717C38.1717 50.0436 41.7787 53.6506 46.2506 53.6506C50.7225 53.6506 54.3295 50.0436 54.3295 45.5717C54.3295 41.0998 50.7225 37.4928 46.2506 37.4928ZM46.2506 50.824C43.3607 50.824 40.9982 48.4686 40.9982 45.5717C40.9982 42.6748 43.3537 40.3193 46.2506 40.3193C49.1475 40.3193 51.5029 42.6748 51.5029 45.5717C51.5029 48.4686 49.1404 50.824 46.2506 50.824ZM56.5443 37.1623C56.5443 38.21 55.7006 39.0467 54.66 39.0467C53.6123 39.0467 52.7756 38.2029 52.7756 37.1623C52.7756 36.1217 53.6193 35.2779 54.66 35.2779C55.7006 35.2779 56.5443 36.1217 56.5443 37.1623ZM61.8951 39.0748C61.7756 36.5506 61.199 34.3146 59.3498 32.4725C57.5076 30.6303 55.2717 30.0537 52.7475 29.9271C50.1459 29.7795 42.3482 29.7795 39.7467 29.9271C37.2295 30.0467 34.9936 30.6232 33.1443 32.4654C31.2951 34.3076 30.7256 36.5436 30.599 39.0678C30.4514 41.6693 30.4514 49.467 30.599 52.0686C30.7186 54.5928 31.2951 56.8287 33.1443 58.6709C34.9936 60.5131 37.2225 61.0896 39.7467 61.2162C42.3482 61.3639 50.1459 61.3639 52.7475 61.2162C55.2717 61.0967 57.5076 60.5201 59.3498 58.6709C61.192 56.8287 61.7686 54.5928 61.8951 52.0686C62.0428 49.467 62.0428 41.6764 61.8951 39.0748ZM58.5342 54.86C57.9857 56.2381 56.924 57.2998 55.5389 57.8553C53.4646 58.6779 48.5428 58.4881 46.2506 58.4881C43.9584 58.4881 39.0295 58.6709 36.9623 57.8553C35.5842 57.3068 34.5225 56.2451 33.967 54.86C33.1443 52.7857 33.3342 47.8639 33.3342 45.5717C33.3342 43.2795 33.1514 38.3506 33.967 36.2834C34.5154 34.9053 35.5771 33.8436 36.9623 33.2881C39.0365 32.4654 43.9584 32.6553 46.2506 32.6553C48.5428 32.6553 53.4717 32.4725 55.5389 33.2881C56.917 33.8365 57.9787 34.8982 58.5342 36.2834C59.3568 38.3576 59.167 43.2795 59.167 45.5717C59.167 47.8639 59.3568 52.7928 58.5342 54.86Z" fill="black"/>
<path d="M42.7751 12.6195L42.6336 3.89337L47.8659 3.80855L47.8811 4.74593L43.7055 4.81361L43.7533 7.76209L47.5369 7.70075L47.5521 8.63813L43.7685 8.69946L43.8318 12.6023L42.7751 12.6195Z" fill="black"/>
<path d="M50.0363 13.058C49.4512 12.9755 48.9575 12.7638 48.5552 12.4229C48.1556 12.0825 47.8674 11.6445 47.6906 11.1088C47.5165 10.5736 47.4767 9.97118 47.5712 9.30168C47.6665 8.62655 47.872 8.0545 48.1878 7.58551C48.5064 7.11691 48.9048 6.77434 49.3829 6.55779C49.8639 6.34163 50.3969 6.27484 50.982 6.35742C51.5671 6.44 52.0595 6.6515 52.459 6.99192C52.8613 7.33274 53.1493 7.77219 53.323 8.31026C53.4995 8.84873 53.5401 9.45553 53.4448 10.1307C53.3503 10.8001 53.1439 11.3678 52.8257 11.8336C52.5103 12.2997 52.1121 12.6409 51.6312 12.8571C51.1531 13.0736 50.6214 13.1406 50.0363 13.058ZM50.1626 12.1635C50.607 12.2262 50.9888 12.1639 51.3079 11.9765C51.627 11.7892 51.8817 11.5196 52.0719 11.1677C52.2621 10.8158 52.3878 10.4233 52.449 9.99011C52.5101 9.5569 52.4982 9.14351 52.4131 8.74992C52.3281 8.35634 52.1584 8.02396 51.904 7.7528C51.6496 7.48163 51.3002 7.31469 50.8558 7.25196C50.4113 7.18923 50.0293 7.25295 49.7099 7.44312C49.3904 7.6333 49.1353 7.90572 48.9447 8.2604C48.754 8.61508 48.6281 9.00902 48.567 9.44222C48.5059 9.87543 48.518 10.2874 48.6034 10.6782C48.6889 11.069 48.859 11.3985 49.1137 11.6669C49.3685 11.9352 49.7181 12.1008 50.1626 12.1635Z" fill="black"/>
<path d="M55.8683 5.20795L53.7333 13.6701L52.7582 13.424L54.8931 4.96193L55.8683 5.20795Z" fill="black"/>
<path d="M58.5323 6.0023L55.8341 14.302L54.8777 13.9911L57.5759 5.69137L58.5323 6.0023Z" fill="black"/>
<path d="M58.8175 15.6258C58.2785 15.3838 57.863 15.0432 57.5713 14.604C57.2822 14.1659 57.1271 13.665 57.1061 13.1013C57.0877 12.5387 57.217 11.949 57.4939 11.3322C57.7731 10.7102 58.1295 10.2178 58.5633 9.8551C58.9996 9.49356 59.4775 9.27524 59.997 9.20014C60.5191 9.12621 61.0497 9.21024 61.5888 9.45223C62.1278 9.69422 62.542 10.0342 62.8311 10.4723C63.1228 10.9116 63.2773 11.4137 63.2945 11.9789C63.3144 12.5452 63.1847 13.1394 62.9055 13.7614C62.6286 14.3782 62.2725 14.8661 61.8374 15.2251C61.4048 15.5852 60.9275 15.8022 60.4054 15.8761C59.8859 15.9512 59.3566 15.8678 58.8175 15.6258ZM59.1875 14.8016C59.597 14.9854 59.981 15.0317 60.3396 14.9405C60.6982 14.8492 61.0178 14.661 61.2984 14.3759C61.5789 14.0908 61.8088 13.7487 61.988 13.3495C62.1671 12.9504 62.2706 12.55 62.2983 12.1483C62.3261 11.7466 62.2554 11.3801 62.0865 11.0489C61.9175 10.7177 61.6283 10.4602 61.2188 10.2764C60.8093 10.0926 60.4247 10.0476 60.0649 10.1415C59.7052 10.2353 59.3844 10.4261 59.1027 10.7138C58.821 11.0015 58.5905 11.3449 58.4113 11.744C58.2322 12.1432 58.1293 12.5423 58.1027 12.9414C58.0762 13.3405 58.1479 13.7044 58.3181 14.033C58.4882 14.3616 58.778 14.6178 59.1875 14.8016Z" fill="black"/>
<path d="M61.8408 16.9389L63.8671 10.4033L64.7415 10.9969L63.0973 15.9377L63.1537 15.976L67.1249 12.6149L68.0134 13.218L66.3506 18.1256L66.407 18.1639L70.3826 14.8264L71.257 15.42L65.9306 19.7154L65.1127 19.1601L66.7523 14.1955L66.6677 14.1381L62.6588 17.4942L61.8408 16.9389Z" fill="black"/>
<path d="M78.1795 19.8008L78.8804 20.5917L74.5555 24.4239C74.1089 24.8195 73.617 25.0675 73.0796 25.1679C72.5463 25.2685 72.01 25.218 71.4707 25.0164C70.9336 24.8129 70.438 24.4549 69.984 23.9425C69.5299 23.43 69.2342 22.8949 69.0968 22.3372C68.9616 21.7776 68.9751 21.2381 69.1373 20.7186C69.3035 20.1994 69.6098 19.7419 70.0564 19.3463L74.3813 15.5141L75.0821 16.3051L70.821 20.0807C70.5021 20.3633 70.2804 20.685 70.1559 21.0458C70.0336 21.4047 70.0162 21.7769 70.1036 22.1626C70.195 22.5485 70.4018 22.9232 70.7239 23.2868C71.0461 23.6504 71.3932 23.9008 71.7653 24.038C72.1395 24.1733 72.5112 24.2008 72.8803 24.1204C73.2534 24.0403 73.5994 23.859 73.9184 23.5764L78.1795 19.8008Z" fill="black"/>
<path d="M78.7197 27.1923L78.0173 26.5692C78.1135 26.4402 78.1916 26.2907 78.2515 26.1208C78.3153 25.9518 78.3362 25.763 78.314 25.5546C78.2919 25.3461 78.202 25.1187 78.0442 24.8722C77.8283 24.5348 77.5706 24.3035 77.2711 24.1781C76.9755 24.0536 76.7093 24.0672 76.4724 24.2188C76.2619 24.3535 76.1446 24.5366 76.1206 24.7678C76.0965 24.999 76.148 25.3034 76.2749 25.6809L76.5977 26.6279C76.7936 27.1973 76.8456 27.6818 76.7539 28.0812C76.6645 28.4791 76.4272 28.8013 76.042 29.0479C75.7261 29.25 75.3856 29.3398 75.0204 29.3173C74.6566 29.2971 74.2996 29.1715 73.9493 28.9403C73.599 28.7092 73.2868 28.3795 73.0126 27.9512C72.6527 27.3889 72.4768 26.8454 72.485 26.3207C72.4932 25.796 72.7004 25.3345 73.1066 24.9362L73.8222 25.6115C73.5745 25.878 73.4447 26.1652 73.4326 26.4731C73.4221 26.7834 73.5279 27.112 73.75 27.459C74.0027 27.8538 74.287 28.1136 74.6031 28.2385C74.9231 28.3643 75.2015 28.3513 75.4384 28.1997C75.6298 28.0772 75.7472 27.9076 75.7907 27.6909C75.8365 27.4727 75.8029 27.2041 75.6898 26.8852L75.3171 25.8285C75.1135 25.2471 75.0616 24.7575 75.1612 24.3598C75.2647 23.963 75.5067 23.6428 75.8872 23.3993C76.1982 23.2002 76.5293 23.1114 76.8804 23.1329C77.233 23.1568 77.5747 23.2771 77.9056 23.4937C78.238 23.7126 78.5283 24.0159 78.7764 24.4036C79.1256 24.9491 79.2801 25.454 79.2399 25.9182C79.2013 26.3848 79.0279 26.8095 78.7197 27.1923Z" fill="black"/>
<path d="M75.9399 33.1246L84.2448 30.4426L85.853 35.4223L84.9608 35.7104L83.6774 31.7364L80.8713 32.6426L82.0342 36.2436L81.1421 36.5317L79.9791 32.9307L76.2646 34.1303L75.9399 33.1246Z" fill="black"/>
<path d="M77.7136 40.2944C77.6175 39.7114 77.6719 39.177 77.8769 38.6911C78.0823 38.2081 78.4141 37.8021 78.8724 37.4732C79.3312 37.1471 79.8941 36.929 80.5613 36.8191C81.234 36.7082 81.8413 36.7333 82.3833 36.8945C82.9257 37.0584 83.3717 37.3362 83.7213 37.7277C84.0713 38.122 84.2944 38.6107 84.3905 39.1938C84.4866 39.7768 84.432 40.3098 84.2266 40.7929C84.0216 41.2787 83.6884 41.6849 83.2268 42.0115C82.7657 42.3409 82.1988 42.561 81.5261 42.6719C80.8589 42.7819 80.2556 42.7547 79.7159 42.5902C79.1768 42.4286 78.7322 42.1506 78.3821 41.7563C78.0326 41.3648 77.8097 40.8775 77.7136 40.2944ZM78.605 40.1475C78.678 40.5904 78.8516 40.9361 79.1258 41.1846C79.3999 41.433 79.7334 41.5955 80.126 41.6718C80.5187 41.7482 80.9308 41.7508 81.3625 41.6796C81.7942 41.6085 82.1851 41.4735 82.5352 41.2747C82.8854 41.0759 83.1519 40.8146 83.3346 40.4907C83.5173 40.1669 83.5722 39.7836 83.4992 39.3407C83.4261 38.8978 83.2511 38.5524 82.9742 38.3043C82.6972 38.0563 82.361 37.8944 81.9655 37.8185C81.5701 37.7426 81.1565 37.7402 80.7248 37.8114C80.2932 37.8825 79.9036 38.0173 79.5563 38.2156C79.2089 38.414 78.9453 38.6748 78.7653 38.9982C78.5854 39.3215 78.532 39.7046 78.605 40.1475Z" fill="black"/>
<path d="M86.9498 43.5298L78.2368 44.0267L78.1795 43.0227L86.8926 42.5257L86.9498 43.5298Z" fill="black"/>
<path d="M86.9906 46.2571L78.2645 46.1157L78.2808 45.1101L87.0069 45.2516L86.9906 46.2571Z" fill="black"/>
<path d="M77.9054 49.485C77.9725 48.8979 78.1711 48.3988 78.5012 47.9876C78.831 47.5792 79.2613 47.2796 79.7921 47.0886C80.3226 46.9005 80.9237 46.8448 81.5954 46.9216C82.2728 46.9991 82.8501 47.1895 83.3273 47.4928C83.8041 47.7989 84.1571 48.1881 84.3862 48.6604C84.6149 49.1355 84.6958 49.6665 84.6286 50.2536C84.5615 50.8407 84.3631 51.3384 84.0333 51.7468C83.7032 52.158 83.2715 52.4575 82.7382 52.6453C82.2046 52.8359 81.5991 52.8925 80.9217 52.8151C80.2499 52.7383 79.677 52.5469 79.203 52.2411C78.7287 51.9381 78.3771 51.5491 78.1484 51.074C77.9193 50.6018 77.8383 50.0721 77.9054 49.485ZM78.803 49.5876C78.752 50.0336 78.8244 50.4136 79.0201 50.7276C79.2158 51.0416 79.492 51.2891 79.8488 51.47C80.2055 51.6509 80.6012 51.7662 81.0359 51.8159C81.4706 51.8656 81.8835 51.8427 82.2747 51.7473C82.6659 51.652 82.9937 51.4735 83.2581 51.2121C83.5224 50.9507 83.6801 50.597 83.7311 50.151C83.7821 49.7051 83.7083 49.3249 83.5098 49.0105C83.3112 48.6962 83.0322 48.4484 82.6726 48.2672C82.313 48.086 81.9159 47.9705 81.4812 47.9208C81.0465 47.8711 80.635 47.8941 80.2466 47.9898C79.8583 48.0855 79.5333 48.2643 79.2718 48.526C79.0102 48.7878 78.854 49.1417 78.803 49.5876Z" fill="black"/>
<path d="M77.5728 52.7711L84.4152 52.7259L84.1138 53.7389L78.9071 53.666L78.8877 53.7313L83.2924 56.5L82.9862 57.5293L77.8056 57.4285L77.7861 57.4939L82.1697 60.274L81.8684 61.2869L76.1633 57.509L76.4452 56.5614L81.6731 56.6229L81.7023 56.5249L77.2909 53.7187L77.5728 52.7711Z" fill="black"/>
<path d="M79.77 69.193L79.2257 70.0989L74.2726 67.1227C73.7612 66.8155 73.3771 66.4206 73.1201 65.9381C72.8642 65.4595 72.7515 64.9327 72.782 64.3578C72.8151 63.7844 73.0079 63.2043 73.3605 62.6174C73.7131 62.0305 74.1349 61.5879 74.6257 61.2896C75.1189 60.9927 75.6376 60.8437 76.1819 60.8426C76.7271 60.8453 77.2553 61.0004 77.7667 61.3076L82.7198 64.2838L82.1755 65.1896L77.2955 62.2574C76.9302 62.0379 76.5568 61.923 76.1753 61.9125C75.7963 61.9035 75.4359 61.9985 75.0943 62.1975C74.7536 62.4005 74.4581 62.7102 74.2079 63.1266C73.9577 63.543 73.823 63.9492 73.8037 64.3453C73.7869 64.7429 73.8722 65.1057 74.0596 65.4337C74.2479 65.7656 74.5247 66.0413 74.89 66.2608L79.77 69.193Z" fill="black"/>
<path d="M72.8858 71.9183L73.2694 71.0614C73.4213 71.1144 73.5873 71.144 73.7674 71.1502C73.9477 71.1603 74.1341 71.1236 74.3263 71.04C74.5185 70.9563 74.7085 70.8023 74.8963 70.5778C75.1533 70.2706 75.2967 69.9554 75.3264 69.6321C75.3565 69.3127 75.2637 69.0629 75.048 68.8824C74.8562 68.722 74.6465 68.665 74.4187 68.7115C74.1909 68.7579 73.916 68.8984 73.594 69.1327L72.7875 69.7248C72.303 70.0825 71.8565 70.2775 71.448 70.3098C71.0416 70.3439 70.663 70.2142 70.3122 69.9207C70.0246 69.6801 69.8368 69.3822 69.7487 69.027C69.6588 68.674 69.6716 68.2957 69.7869 67.8922C69.9023 67.4887 70.1231 67.0919 70.4495 66.7019C70.8779 66.1898 71.3435 65.859 71.8465 65.7094C72.3495 65.5598 72.8519 65.619 73.3537 65.8869L72.9242 66.7722C72.5957 66.6158 72.2828 66.5781 71.9854 66.659C71.6863 66.7421 71.4045 66.9416 71.1402 67.2576C70.8394 67.6171 70.6769 67.9663 70.6526 68.3053C70.6286 68.6482 70.7245 68.9099 70.9402 69.0904C71.1145 69.2363 71.3115 69.2974 71.5313 69.2738C71.7532 69.2521 71.9993 69.1394 72.2696 68.9359L73.1657 68.2633C73.6593 67.8947 74.1107 67.6982 74.52 67.6739C74.9296 67.6536 75.3076 67.7884 75.6541 68.0782C75.9373 68.3152 76.1214 68.6044 76.2062 68.9458C76.2892 69.2893 76.277 69.6514 76.1697 70.032C76.0605 70.4148 75.8583 70.7827 75.563 71.1357C75.1474 71.6325 74.7121 71.9313 74.2572 72.0323C73.8005 72.1354 73.3434 72.0974 72.8858 71.9183Z" fill="black"/>
<path d="M66.3551 71.0812L71.4183 78.1896L67.156 81.2255L66.6121 80.4619L70.0136 78.0391L68.3028 75.6373L65.2206 77.8326L64.6767 77.069L67.7589 74.8737L65.4944 71.6943L66.3551 71.0812Z" fill="black"/>
<path d="M60.0749 74.9321C60.6012 74.6635 61.127 74.5531 61.6521 74.6009C62.1747 74.65 62.6623 74.8429 63.1148 75.1797C63.5648 75.5178 63.9435 75.9879 64.2508 76.5902C64.5607 77.1975 64.7212 77.7838 64.7322 78.3491C64.7406 78.9157 64.6114 79.425 64.3445 79.8769C64.075 80.3302 63.6772 80.6911 63.1508 80.9597C62.6245 81.2283 62.1 81.3381 61.5774 81.289C61.0523 81.2412 60.5641 81.047 60.1128 80.7064C59.659 80.3671 59.2771 79.8938 58.9672 79.2864C58.6598 78.6842 58.5026 78.101 58.4954 77.537C58.4857 76.9742 58.6156 76.4662 58.885 76.013C59.1519 75.561 59.5486 75.2007 60.0749 74.9321ZM60.4855 75.7368C60.0857 75.9408 59.8091 76.2112 59.6556 76.5479C59.502 76.8846 59.4485 77.2515 59.495 77.6488C59.5414 78.0461 59.6641 78.4396 59.863 78.8293C60.0618 79.219 60.3091 79.5505 60.6049 79.8238C60.9006 80.0971 61.2305 80.2716 61.5945 80.3474C61.9585 80.4232 62.3404 80.359 62.7402 80.155C63.14 79.951 63.416 79.6794 63.5682 79.3401C63.7204 79.0009 63.7727 78.6314 63.7249 78.2316C63.6772 77.8318 63.5539 77.437 63.355 77.0473C63.1561 76.6576 62.9095 76.3274 62.615 76.0567C62.3206 75.7859 61.992 75.6139 61.6293 75.5406C61.2666 75.4674 60.8854 75.5328 60.4855 75.7368Z" fill="black"/>
<path d="M59.782 84.7165L56.6745 76.5612L57.6142 76.2031L60.7218 84.3584L59.782 84.7165Z" fill="black"/>
<path d="M57.1759 85.5865L54.6163 77.243L55.5778 76.9481L58.1374 85.2916L57.1759 85.5865Z" fill="black"/>
<path d="M51.4163 77.8728C51.9965 77.7611 52.5322 77.8013 53.0234 77.9932C53.5117 78.1856 53.9264 78.5065 54.2674 78.9559C54.6057 79.4057 54.8387 79.9627 54.9664 80.6266C55.0952 81.2962 55.0863 81.904 54.9397 82.45C54.7903 82.9966 54.5245 83.4499 54.1425 83.8098C53.7576 84.1703 53.275 84.4063 52.6948 84.5179C52.1145 84.6296 51.5802 84.5892 51.0919 84.3967C50.6007 84.2048 50.1858 83.8825 49.847 83.4299C49.5054 82.9777 49.2702 82.4169 49.1414 81.7473C49.0137 81.0834 49.0248 80.4795 49.1747 79.9357C49.3219 79.3924 49.5879 78.9406 49.9728 78.5801C50.3548 78.2202 50.836 77.9844 51.4163 77.8728ZM51.5869 78.7599C51.1462 78.8447 50.8052 79.0275 50.5642 79.3082C50.3231 79.5889 50.1696 79.9265 50.1038 80.3211C50.0379 80.7156 50.0463 81.1277 50.129 81.5573C50.2116 81.987 50.357 82.3741 50.5651 82.7189C50.7732 83.0636 51.0415 83.323 51.3701 83.497C51.6986 83.671 52.0833 83.7156 52.5241 83.6308C52.9649 83.546 53.3055 83.3618 53.5461 83.0783C53.7866 82.7948 53.9395 82.4544 54.0049 82.0571C54.0702 81.6597 54.0615 81.2463 53.9788 80.8166C53.8962 80.387 53.7511 80.0012 53.5435 79.6593C53.336 79.3173 53.0682 79.0608 52.7402 78.8895C52.4121 78.7183 52.0277 78.6751 51.5869 78.7599Z" fill="black"/>
<path d="M48.1389 78.5376L50.2391 85.0499L49.1824 85.067L47.6866 80.0792L47.6184 80.0803L46.3021 85.1137L45.2284 85.1311L43.7669 80.1598L43.6987 80.1609L42.3651 85.1775L41.3084 85.1946L43.1964 78.6177L44.1849 78.6017L45.698 83.6062L45.8003 83.6046L47.1504 78.5536L48.1389 78.5376Z" fill="black"/>
<path d="M33.1482 85.6012L32.12 85.3571L33.4548 79.735C33.5926 79.1545 33.8525 78.6687 34.2344 78.2776C34.6129 77.8886 35.0807 77.6216 35.6378 77.4764C36.1943 77.3341 36.8056 77.342 37.4717 77.5001C38.1379 77.6583 38.6875 77.926 39.1206 78.3033C39.553 78.6834 39.8522 79.1325 40.0182 79.6508C40.1808 80.1712 40.1932 80.7216 40.0554 81.3021L38.7206 86.9242L37.6924 86.6801L39.0075 81.1409C39.1059 80.7263 39.1023 80.3356 38.9967 79.9689C38.8904 79.605 38.6906 79.2904 38.3973 79.0251C38.1007 78.7619 37.716 78.5743 37.2433 78.462C36.7707 78.3498 36.3427 78.3446 35.9594 78.4463C35.5755 78.5508 35.2556 78.742 34.9998 79.02C34.7406 79.3 34.5618 79.6474 34.4633 80.062L33.1482 85.6012Z" fill="black"/>
<path d="M28.4827 79.862L29.4154 79.9692C29.4107 80.1301 29.4326 80.2973 29.481 80.4708C29.5257 80.6458 29.617 80.8124 29.7547 80.9704C29.8925 81.1284 30.0966 81.2631 30.3673 81.3744C30.7377 81.5268 31.0816 81.5683 31.3988 81.4991C31.7123 81.4315 31.9225 81.2676 32.0295 81.0075C32.1246 80.7763 32.1156 80.5591 32.0026 80.3559C31.8895 80.1528 31.6727 79.9331 31.3521 79.6968L30.5444 79.1065C30.0571 78.7525 29.7365 78.3857 29.5824 78.0059C29.4273 77.6288 29.4367 77.2287 29.6107 76.8057C29.7533 76.4589 29.9807 76.1899 30.2928 75.9988C30.6022 75.8066 30.9667 75.7046 31.3862 75.6929C31.8057 75.6811 32.2507 75.7719 32.721 75.9654C33.3384 76.2193 33.7943 76.5635 34.0887 76.9979C34.3831 77.4323 34.4782 77.9291 34.3742 78.4884L33.4006 78.346C33.4505 77.9856 33.3921 77.6759 33.2252 77.4168C33.0558 77.1567 32.7805 76.9483 32.3996 76.7916C31.9661 76.6133 31.584 76.5637 31.2536 76.6428C30.9193 76.7234 30.6988 76.8938 30.5918 77.1539C30.5053 77.3641 30.5065 77.5704 30.5953 77.7728C30.683 77.9778 30.8646 78.1785 31.1402 78.3747L32.0519 79.0262C32.5522 79.3855 32.8757 79.7567 33.0224 80.1395C33.1653 80.5239 33.1508 80.925 32.979 81.3427C32.8386 81.6843 32.6184 81.947 32.3185 82.1309C32.016 82.3136 31.6672 82.4113 31.2719 82.4238C30.874 82.4352 30.4622 82.3534 30.0366 82.1784C29.4376 81.932 29.0213 81.6072 28.7878 81.204C28.5517 80.7997 28.45 80.3524 28.4827 79.862Z" fill="black"/>
<path d="M27.3436 73.3986L22.0854 80.364L17.9089 77.2112L18.4737 76.4629L21.8068 78.9791L23.5835 76.6255L20.5633 74.3456L21.1282 73.5974L24.1483 75.8773L26.5001 72.7619L27.3436 73.3986Z" fill="black"/>
<path d="M21.7584 68.5427C22.1728 68.964 22.4361 69.4322 22.5484 69.9474C22.6587 70.4606 22.6212 70.9836 22.436 71.5164C22.2489 72.0472 21.9143 72.5497 21.4323 73.0239C20.9462 73.502 20.4353 73.8313 19.8994 74.0117C19.3616 74.1901 18.837 74.22 18.3257 74.1013C17.8124 73.9805 17.3486 73.7095 16.9342 73.2883C16.5198 72.867 16.2575 72.3998 16.1472 71.8866C16.0349 71.3714 16.0733 70.8474 16.2625 70.3146C16.4497 69.7798 16.7864 69.2733 17.2724 68.7951C17.7544 68.321 18.2634 67.9957 18.7992 67.8193C19.333 67.6409 19.8566 67.612 20.3698 67.7328C20.8811 67.8515 21.344 68.1215 21.7584 68.5427ZM21.1143 69.1763C20.7996 68.8563 20.4585 68.6737 20.0913 68.6285C19.724 68.5833 19.3579 68.6425 18.993 68.8063C18.628 68.97 18.2896 69.2053 17.9777 69.5121C17.6658 69.8189 17.424 70.1544 17.2522 70.5186C17.0805 70.8828 17.0132 71.2499 17.0503 71.6198C17.0875 71.9898 17.2634 72.3347 17.5782 72.6547C17.893 72.9747 18.235 73.1563 18.6043 73.1995C18.9736 73.2428 19.3417 73.1815 19.7087 73.0158C20.0757 72.85 20.4151 72.6138 20.727 72.3069C21.0389 72.0001 21.2797 71.6656 21.4494 71.3034C21.6191 70.9412 21.6844 70.5761 21.6452 70.2082C21.6061 69.8402 21.4291 69.4962 21.1143 69.1763Z" fill="black"/>
<path d="M12.3306 71.1998L19.1682 65.7766L19.7931 66.5645L12.9555 71.9878L12.3306 71.1998Z" fill="black"/>
<path d="M10.7074 68.9685L17.8873 64.0072L18.459 64.8346L11.2791 69.7958L10.7074 68.9685Z" fill="black"/>
<path d="M16.3096 61.1325C16.5917 61.6518 16.7156 62.1745 16.6814 62.7006C16.6458 63.2243 16.4655 63.7167 16.1405 64.1778C15.8141 64.6363 15.3539 65.027 14.7598 65.3498C14.1606 65.6752 13.5787 65.8508 13.0138 65.8763C12.4477 65.8994 11.9352 65.7833 11.4765 65.5282C11.0165 65.2705 10.6454 64.8821 10.3633 64.3628C10.0813 63.8436 9.95802 63.3221 9.9936 62.7984C10.0278 62.2723 10.2094 61.7792 10.5382 61.3193C10.8657 60.8569 11.329 60.4629 11.9282 60.1374C12.5223 59.8147 13.1012 59.6424 13.6649 59.6207C14.2272 59.5965 14.7384 59.7132 15.1985 59.9709C15.6571 60.2261 16.0275 60.6133 16.3096 61.1325ZM15.5158 61.5638C15.3015 61.1693 15.0241 60.8997 14.6836 60.755C14.343 60.6102 13.9748 60.5661 13.5788 60.6228C13.1829 60.6795 12.7927 60.8123 12.4082 61.0211C12.0238 61.23 11.6988 61.4857 11.4332 61.7884C11.1677 62.0911 11.0017 62.4254 10.9353 62.7912C10.869 63.157 10.9429 63.5372 11.1572 63.9316C11.3714 64.326 11.6501 64.5949 11.9931 64.7383C12.3361 64.8818 12.7069 64.9244 13.1053 64.8664C13.5038 64.8084 13.8953 64.6749 14.2797 64.4661C14.6641 64.2572 14.9879 64.0021 15.2509 63.7008C15.514 63.3995 15.6775 63.0666 15.7414 62.7021C15.8052 62.3376 15.73 61.9582 15.5158 61.5638Z" fill="black"/>
<path d="M14.7019 58.2629L9.12558 62.2284L8.79072 61.226L13.0956 58.2963L13.074 58.2316L7.87795 58.4938L7.53769 57.4753L11.8372 54.5832L11.8156 54.5185L6.63032 54.7592L6.29546 53.7568L13.1356 53.5744L13.4488 54.5121L9.1332 57.4634L9.1656 57.5604L14.3886 57.3252L14.7019 58.2629Z" fill="black"/>
<path d="M3.47088 46.0891L3.39569 45.035L9.15946 44.6238C9.75454 44.5814 10.2959 44.6838 10.7834 44.9309C11.268 45.1755 11.6629 45.5418 11.9683 46.0298C12.2709 46.5181 12.4465 47.1036 12.4952 47.7866C12.5439 48.4695 12.4532 49.0741 12.223 49.6003C11.99 50.1267 11.6511 50.5468 11.2064 50.8605C10.7586 51.1715 10.2372 51.3483 9.64215 51.3907L3.87838 51.8019L3.80319 50.7477L9.48195 50.3427C9.907 50.3123 10.2786 50.1918 10.5968 49.9812C10.9122 49.7707 11.1525 49.4858 11.3177 49.1266C11.4799 48.7647 11.5437 48.3415 11.5091 47.8569C11.4745 47.3723 11.3513 46.9625 11.1394 46.6272C10.9247 46.2922 10.6464 46.0444 10.3046 45.8836C9.95967 45.7202 9.5747 45.6537 9.14964 45.684L3.47088 46.0891Z" fill="black"/>
<path d="M7.53112 39.8778L7.71098 40.7993C7.55621 40.8434 7.40346 40.9148 7.25271 41.0134C7.09937 41.109 6.96821 41.2463 6.85923 41.4254C6.75025 41.6045 6.68362 41.8398 6.65934 42.1314C6.62611 42.5306 6.69043 42.8709 6.8523 43.1523C7.01157 43.4307 7.23135 43.5816 7.51163 43.6049C7.76077 43.6256 7.96507 43.5514 8.12454 43.3823C8.28401 43.2131 8.4279 42.94 8.55621 42.563L8.87462 41.6145C9.06473 41.0431 9.31749 40.6266 9.63289 40.3649C9.94547 40.103 10.3297 39.991 10.7855 40.029C11.1592 40.0601 11.4843 40.1955 11.7608 40.4351C12.0376 40.672 12.245 40.9886 12.383 41.3849C12.5211 41.7812 12.569 42.2328 12.5268 42.7396C12.4714 43.4049 12.2812 43.9435 11.9561 44.3555C11.6311 44.7674 11.1863 45.0083 10.6217 45.0782L10.4631 44.1072C10.8217 44.0458 11.0992 43.8964 11.2957 43.6591C11.4925 43.4189 11.6079 43.0935 11.6421 42.683C11.681 42.2159 11.6128 41.8368 11.4375 41.5457C11.2595 41.2515 11.0305 41.0927 10.7502 41.0694C10.5237 41.0505 10.3274 41.114 10.1613 41.2598C9.99241 41.4054 9.85607 41.6392 9.75229 41.9613L9.40699 43.0272C9.21571 43.6128 8.95977 44.0333 8.63917 44.2889C8.31598 44.5413 7.92931 44.6488 7.47916 44.6114C7.11112 44.5807 6.79414 44.4503 6.52823 44.22C6.26256 43.987 6.06401 43.6839 5.93256 43.311C5.80136 42.9351 5.75485 42.5179 5.79302 42.0593C5.84676 41.4138 6.0305 40.9188 6.34425 40.5743C6.65823 40.227 7.05386 39.9948 7.53112 39.8778Z" fill="black"/>
<path d="M13.3433 36.8444L5.11621 33.9322L6.86236 28.9992L7.74613 29.3121L6.35262 33.2488L9.13247 34.2328L10.3952 30.6656L11.2789 30.9784L10.0162 34.5456L13.6959 35.8481L13.3433 36.8444Z" fill="black"/>
<path d="M16.2799 30.0823C16.0026 30.6041 15.635 30.9959 15.1774 31.2578C14.721 31.5171 14.2109 31.6384 13.647 31.6219C13.0845 31.6028 12.5047 31.4345 11.9077 31.1172C11.3057 30.7972 10.8381 30.4087 10.5051 29.9518C10.1734 29.4924 9.98738 29.001 9.94704 28.4777C9.90804 27.9518 10.0272 27.428 10.3045 26.9062C10.5819 26.3844 10.9487 25.9939 11.4051 25.7346C11.8628 25.4727 12.3741 25.352 12.9392 25.3724C13.5055 25.3904 14.0898 25.5593 14.6918 25.8793C15.2888 26.1967 15.7519 26.5844 16.0811 27.0425C16.4116 27.4981 16.5964 27.9888 16.6354 28.5147C16.6758 29.038 16.5573 29.5606 16.2799 30.0823ZM15.4822 29.6583C15.6929 29.262 15.7646 28.8819 15.6974 28.518C15.6302 28.1541 15.4637 27.8227 15.1979 27.5238C14.9322 27.2248 14.6061 26.9727 14.2198 26.7674C13.8335 26.562 13.4408 26.4322 13.0419 26.3777C12.6429 26.3233 12.2725 26.3694 11.9308 26.5159C11.5891 26.6624 11.3129 26.9339 11.1023 27.3302C10.8916 27.7266 10.8211 28.1074 10.8908 28.4726C10.9605 28.8378 11.1295 29.1705 11.3978 29.4708C11.6661 29.771 11.9934 30.0238 12.3797 30.2292C12.766 30.4345 13.1574 30.5637 13.5539 30.6168C13.9504 30.6699 14.3182 30.6225 14.6574 30.4746C14.9966 30.3268 15.2715 30.0547 15.4822 29.6583Z" fill="black"/>
<path d="M10.9084 21.8981L18.1325 26.7949L17.5682 27.6274L10.3441 22.7306L10.9084 21.8981Z" fill="black"/>
<path d="M12.5503 19.6793L19.4364 25.0409L18.8186 25.8344L11.9324 20.4728L12.5503 19.6793Z" fill="black"/>
<path d="M21.6993 22.6798C21.289 23.1051 20.8278 23.3806 20.3157 23.5063C19.8056 23.6299 19.2818 23.6061 18.7443 23.4349C18.2088 23.2617 17.6977 22.9403 17.2111 22.4709C16.7205 21.9974 16.378 21.4952 16.1836 20.9643C15.9912 20.4313 15.9477 19.9077 16.053 19.3935C16.1603 18.8772 16.4191 18.4064 16.8294 17.9812C17.2397 17.5559 17.6999 17.2815 18.21 17.1578C18.7221 17.0321 19.247 17.0569 19.7845 17.2321C20.3241 17.4053 20.8392 17.7286 21.3299 18.202C21.8164 18.6715 22.1549 19.1717 22.3452 19.7028C22.5375 20.2317 22.58 20.7544 22.4727 21.2706C22.3674 21.7849 22.1096 22.2546 21.6993 22.6798ZM21.0492 22.0526C21.3608 21.7295 21.5345 21.3839 21.5701 21.0156C21.6057 20.6472 21.5369 20.2828 21.3637 19.9223C21.1904 19.5617 20.9464 19.2295 20.6316 18.9258C20.3167 18.622 19.975 18.389 19.6064 18.2268C19.2379 18.0647 18.8692 18.007 18.5003 18.0538C18.1315 18.1005 17.7912 18.2854 17.4795 18.6085C17.1679 18.9315 16.9953 19.2781 16.9617 19.6484C16.9282 20.0187 16.999 20.3851 17.1743 20.7477C17.3495 21.1102 17.5946 21.4433 17.9094 21.7471C18.2243 22.0509 18.565 22.2829 18.9315 22.4431C19.298 22.6033 19.6647 22.659 20.0315 22.6102C20.3983 22.5615 20.7375 22.3756 21.0492 22.0526Z" fill="black"/>
<path d="M23.9829 20.2544L18.5177 16.1373L19.372 15.5151L23.4657 18.7334L23.5208 18.6932L21.7007 13.8194L22.5687 13.1872L26.6248 16.4118L26.68 16.3716L24.8836 11.5015L25.7379 10.8794L27.9789 17.3446L27.1797 17.9265L23.0622 14.7046L22.9795 14.7648L24.7821 19.6725L23.9829 20.2544Z" fill="black"/>
<path d="M32.1857 5.86445L33.1677 5.47377L35.3039 10.8428C35.5244 11.3972 35.5907 11.9441 35.5026 12.4836C35.4162 13.0194 35.1866 13.5067 34.8139 13.9455C34.4401 14.3816 33.9351 14.7262 33.299 14.9793C32.6628 15.2324 32.0591 15.3289 31.4879 15.2688C30.9156 15.206 30.4127 15.0101 29.9792 14.6812C29.5472 14.3486 29.2209 13.9051 29.0004 13.3508L26.8642 7.98173L27.8461 7.59104L29.9508 12.8809C30.1083 13.2769 30.3357 13.5946 30.6328 13.8341C30.9288 14.071 31.273 14.2138 31.6654 14.2625C32.0594 14.3076 32.4821 14.2403 32.9335 14.0607C33.3849 13.8811 33.7382 13.6396 33.9936 13.3362C34.2479 13.0302 34.3999 12.6899 34.4497 12.3155C34.501 11.9373 34.4479 11.5503 34.2904 11.1543L32.1857 5.86445Z" fill="black"/>
<path d="M39.3067 7.88029L38.4815 8.32813C38.393 8.19372 38.2791 8.06939 38.1398 7.95514C38.0027 7.8375 37.8323 7.75353 37.6288 7.70325C37.4253 7.65296 37.1808 7.65995 36.8954 7.72421C36.5046 7.81218 36.1992 7.97556 35.9792 8.21436C35.7614 8.44976 35.6834 8.70465 35.7451 8.97904C35.8 9.22294 35.9321 9.3956 36.1413 9.49702C36.3505 9.59844 36.6541 9.65384 37.0523 9.66323L38.0526 9.68267C38.6547 9.69273 39.1279 9.80898 39.4721 10.0314C39.8156 10.2511 40.0376 10.5841 40.1381 11.0303C40.2204 11.3962 40.1887 11.7469 40.043 12.0826C39.9 12.4176 39.6601 12.7104 39.3234 12.9609C38.9867 13.2114 38.5703 13.3925 38.0741 13.5042C37.4228 13.6508 36.8519 13.6308 36.3615 13.4442C35.871 13.2576 35.5078 12.9054 35.2719 12.3878L36.1508 11.9453C36.3168 12.269 36.5425 12.4891 36.8279 12.6054C37.116 12.7211 37.461 12.7337 37.8629 12.6432C38.3202 12.5403 38.6614 12.3615 38.8866 12.107C39.1139 11.8491 39.1967 11.5829 39.1349 11.3085C39.085 11.0868 38.9656 10.9186 38.7767 10.8039C38.5872 10.6864 38.3232 10.6264 37.9849 10.6239L36.8645 10.6141C36.2485 10.6071 35.7705 10.489 35.4306 10.2598C35.0929 10.0271 34.8744 9.69046 34.7752 9.24978C34.6941 8.88948 34.7235 8.54798 34.8635 8.22528C35.0062 7.90195 35.2357 7.62168 35.5522 7.38447C35.8714 7.14663 36.2555 6.97718 36.7044 6.87611C37.3364 6.73386 37.8637 6.76077 38.2864 6.95682C38.7118 7.15225 39.0519 7.46007 39.3067 7.88029Z" fill="black"/>
</svg>
