<svg width="100" height="99" viewBox="0 0 100 99" fill="none" xmlns="http://www.w3.org/2000/svg">
<circle cx="60" cy="39" r="59" fill="#00E2FF" stroke="black" stroke-width="2"/>
<path d="M40.233 55.9256H41.7045L45.1648 64.3773H45.2841L48.7443 55.9256H50.2159V66.1074H49.0625V58.3716H48.9631L45.7812 66.1074H44.6676L41.4858 58.3716H41.3864V66.1074H40.233V55.9256ZM52.688 66.1074V55.9256H58.8329V57.0194H53.921V60.4597H58.5147V61.5534H53.921V65.0137H58.9125V66.1074H52.688ZM69.1291 55.9256V66.1074H67.9359L62.3876 58.1131H62.2882V66.1074H61.0552V55.9256H62.2484L67.8166 63.9398H67.916V55.9256H69.1291ZM78.2781 55.9256H79.511V62.6671C79.511 63.3631 79.3469 63.9846 79.0188 64.5314C78.694 65.075 78.235 65.5042 77.6417 65.8191C77.0484 66.1306 76.3524 66.2864 75.5536 66.2864C74.7549 66.2864 74.0588 66.1306 73.4656 65.8191C72.8723 65.5042 72.4116 65.075 72.0835 64.5314C71.7586 63.9846 71.5962 63.3631 71.5962 62.6671V55.9256H72.8292V62.5676C72.8292 63.0648 72.9386 63.5073 73.1573 63.8951C73.3761 64.2795 73.6876 64.5828 74.092 64.8049C74.4996 65.0236 74.9869 65.133 75.5536 65.133C76.1204 65.133 76.6076 65.0236 77.0153 64.8049C77.4229 64.5828 77.7345 64.2795 77.9499 63.8951C78.1687 63.5073 78.2781 63.0648 78.2781 62.5676V55.9256Z" fill="black"/>
<path d="M57.8483 40.3688C52.887 41.0488 47.7556 41.7509 43.1991 39.6394C42.9759 39.5356 42.7099 39.616 42.5801 39.8263C42.4516 40.0365 42.5009 40.3104 42.6943 40.4635C48.0061 44.6475 54.2652 43.791 60.3193 42.9669C65.2819 42.2907 70.412 41.59 74.9659 43.6949C75.0411 43.73 75.1216 43.7442 75.2008 43.7391C75.3539 43.7287 75.4993 43.6469 75.5849 43.5081C75.7134 43.2978 75.6641 43.024 75.4707 42.8708C70.1615 38.683 63.9024 39.5395 57.8483 40.3688Z" fill="black"/>
<path d="M81.3858 33.5261C74.4597 28.3622 66.3772 29.4589 58.5633 30.5139C51.8331 31.425 44.8745 32.3671 38.7049 29.2798C38.4804 29.1682 38.2053 29.246 38.0716 29.4602C37.9405 29.6743 37.9937 29.9546 38.1962 30.1064C45.1249 35.2638 53.2035 34.1762 61.0213 33.1173C67.7489 32.2101 74.7075 31.2692 80.8771 34.3514C80.9563 34.3917 81.0432 34.4072 81.1263 34.402C81.2794 34.3917 81.4235 34.3099 81.5091 34.171C81.6415 33.9569 81.5883 33.6766 81.3858 33.5261Z" fill="black"/>
<path d="M61.7362 23.2647C66.6963 22.5873 71.8263 21.8878 76.3815 23.9928C76.4581 24.0278 76.5385 24.0421 76.6177 24.0369C76.7708 24.0265 76.9162 23.9448 77.0005 23.8059C77.1303 23.5957 77.081 23.3218 76.8876 23.1687C71.5772 18.9808 65.3193 19.8386 59.2653 20.6666C54.3039 21.3466 49.1712 22.0487 44.6161 19.9386C44.3928 19.8334 44.1255 19.9139 43.997 20.1254C43.8673 20.3357 43.9166 20.6095 44.1112 20.7613C49.4217 24.9453 55.6821 24.0888 61.7362 23.2647Z" fill="black"/>
</svg>
