<svg width="201" height="226" viewBox="0 0 201 226" fill="none" xmlns="http://www.w3.org/2000/svg">
<path d="M46.6123 82.2732L37.2266 87.8967V85.3421L45.5213 80.4348C46.0668 80.1204 46.3521 79.6603 46.3521 79.0294C46.3521 78.1966 45.665 77.4492 44.803 77.4492H37.2266V75.3838H57.316V80.2911C57.316 83.6494 54.9029 85.7148 51.8049 85.7148C49.4522 85.7148 47.3577 84.1366 46.6123 82.2732ZM48.3904 80.0621C48.3904 82.0129 49.854 83.6203 51.8049 83.6203C53.7558 83.6203 55.2194 82.0129 55.2194 80.035V78.8295C55.2194 77.851 54.6177 77.4492 53.9577 77.4492H49.4793C49.0212 77.4492 48.3904 77.851 48.3904 78.9149V80.0621Z" fill="#1A1311"/>
<rect x="37.2285" y="91.6196" width="20.0894" height="2.06537" fill="#1A1311"/>
<path d="M37.1411 107.859L57.3159 96.9829V99.3647L43.5975 106.654C43.1956 106.885 42.823 107.399 42.823 107.859C42.823 108.32 43.1956 108.834 43.5975 109.065L57.3159 116.354V118.736L37.1411 107.859Z" fill="#1A1311"/>
<path d="M37.2285 127.449V121.853H57.318V127.449H55.2214V125.584C55.2214 124.178 54.4468 123.92 53.8722 123.92H50.2557C49.4812 123.92 48.6505 124.178 48.6505 125.327V126.675H46.556V125.327C46.556 124.178 45.694 123.92 44.9195 123.92H40.6722C40.0975 123.92 39.323 124.178 39.323 125.584V127.449H37.2285Z" fill="#1A1311"/>
<path d="M46.6123 138.207L37.2266 143.83V141.276L45.5213 136.368C46.0668 136.054 46.3521 135.594 46.3521 134.963C46.3521 134.13 45.665 133.383 44.803 133.383H37.2266V131.317H57.316V136.225C57.316 139.583 54.9029 141.648 51.8049 141.648C49.4522 141.648 47.3577 140.07 46.6123 138.207ZM48.3904 135.996C48.3904 137.947 49.854 139.554 51.8049 139.554C53.7558 139.554 55.2194 137.947 55.2194 135.969V134.763C55.2194 133.785 54.6177 133.383 53.9577 133.383H49.4793C49.0212 133.383 48.3904 133.785 48.3904 134.849V135.996Z" fill="#1A1311"/>
<path d="M57.316 163.706V165.8H37.2266V163.706H44.9176C45.6921 163.706 46.554 163.447 46.554 162.329V159.86C46.554 158.711 45.6921 158.453 44.9176 158.453H37.2266V156.387H57.316V158.453H50.3142C49.5376 158.453 48.6485 158.711 48.6485 159.86V162.329C48.6485 163.447 49.5376 163.706 50.3142 163.706H57.316Z" fill="#1A1311"/>
<path d="M47.2993 169.352C53.0103 169.352 57.4575 174.03 57.4575 179.51C57.4575 184.992 53.0103 189.67 47.2993 189.67C41.6175 189.67 37.1411 185.106 37.1411 179.51C37.1411 173.913 41.6175 169.352 47.2993 169.352ZM47.2993 171.446C42.7376 171.446 39.2356 175.206 39.2356 179.51C39.2356 183.815 42.7376 187.573 47.2993 187.573C51.632 187.573 55.363 184.044 55.363 179.51C55.363 174.977 51.632 171.446 47.2993 171.446Z" fill="#1A1311"/>
<path d="M41.907 192.875H57.3181V194.969H42.0215C40.3288 194.969 39.3815 196.204 39.3815 197.609C39.3815 199.016 40.3288 200.249 42.0215 200.249H57.3181V202.346H41.907C39.1504 202.346 37.1704 200.193 37.1704 197.609C37.1704 195.027 39.1504 192.875 41.907 192.875Z" fill="#1A1311"/>
<path d="M41.6466 205.294V207.505C40.3266 207.934 39.2356 209.254 39.2356 210.661C39.2356 212.841 40.843 214.334 42.7376 214.334C44.7176 214.334 46.2396 212.841 46.2396 210.718C46.2396 207.734 48.6485 205.208 51.7777 205.208C55.134 205.208 57.4596 207.934 57.4596 210.776C57.4596 213.645 55.4796 215.912 52.8958 216.343V214.105C54.3032 213.618 55.3651 212.325 55.3651 210.834C55.3651 208.881 53.7577 207.303 51.7777 207.303C49.9393 207.303 48.3049 208.881 48.3049 210.834C48.3049 214.105 45.7211 216.429 42.7376 216.429C39.4938 216.429 37.1411 213.845 37.1411 210.89C37.1411 207.992 39.0358 205.667 41.6466 205.294Z" fill="#1A1311"/>
<path d="M37.2285 225.262V219.666H57.318V225.262H55.2214V223.397C55.2214 221.992 54.4468 221.733 53.8722 221.733H50.2557C49.4812 221.733 48.6505 221.992 48.6505 223.141V224.488H46.556V223.141C46.556 221.992 45.694 221.733 44.9195 221.733H40.6722C40.0975 221.733 39.323 221.992 39.323 223.397V225.262H37.2285Z" fill="#1A1311"/>
<path d="M16.1357 74.4595C21.8467 74.4595 26.2939 79.1378 26.2939 84.6177C26.2939 90.0996 21.8467 94.7779 16.1357 94.7779C10.4539 94.7779 5.97754 90.2141 5.97754 84.6177C5.97754 79.0212 10.4539 74.4595 16.1357 74.4595ZM16.1357 76.554C11.574 76.554 8.07206 80.3141 8.07206 84.6177C8.07206 88.9233 11.574 92.6813 16.1357 92.6813C20.4684 92.6813 24.1994 89.1523 24.1994 84.6177C24.1994 80.0851 20.4684 76.554 16.1357 76.554Z" fill="#1A1311"/>
<path d="M10.483 97.1199V99.331C9.16303 99.762 8.07206 101.08 8.07206 102.489C8.07206 104.667 9.67938 106.162 11.574 106.162C13.554 106.162 15.076 104.667 15.076 102.546C15.076 99.56 17.4849 97.0366 20.6142 97.0366C23.9704 97.0366 26.296 99.762 26.296 102.604C26.296 105.473 24.316 107.74 21.7322 108.171V105.933C23.1397 105.446 24.2015 104.153 24.2015 102.662C24.2015 100.709 22.5942 99.1291 20.6142 99.1291C18.7757 99.1291 17.1413 100.709 17.1413 102.662C17.1413 105.933 14.5576 108.257 11.574 108.257C8.33023 108.257 5.97754 105.673 5.97754 102.718C5.97754 99.8203 7.87218 97.4926 10.483 97.1199Z" fill="#1A1311"/>
<path d="M13.1542 117.033C13.1542 116.285 12.7774 115.742 12.0341 115.34L6.06494 112.155V109.8L26.1814 120.676L6.06494 131.553V129.2L12.0341 126.015C12.7774 125.613 13.1542 125.067 13.1542 124.322V117.033ZM15.2758 124.293L19.5814 122.055C20.4975 121.567 20.6724 121.134 20.6724 120.676C20.6724 120.218 20.4975 119.787 19.5814 119.298L15.2758 117.06V124.293Z" fill="#1A1311"/>
<path d="M11.574 136.45H6.06494V134.384H26.1523V136.45H15.6776L26.1523 142.046V144.37L18.2031 140.037L6.06494 146.608V144.255L14.8178 139.577C15.2758 139.319 15.3612 139.148 15.3612 138.917C15.3612 138.688 15.2758 138.488 14.8178 138.23L11.574 136.45Z" fill="#1A1311"/>
<path d="M13.1542 154.724C13.1542 153.976 12.7774 153.433 12.0341 153.031L6.06494 149.845V147.491L26.1814 158.367L6.06494 169.244V166.891L12.0341 163.706C12.7774 163.304 13.1542 162.758 13.1542 162.011V154.724ZM15.2758 161.984L19.5814 159.746C20.4975 159.258 20.6724 158.825 20.6724 158.367C20.6724 157.909 20.4975 157.478 19.5814 156.989L15.2758 154.751V161.984Z" fill="#1A1311"/>
<path d="M180.474 22.0027L177.178 19.267C180.516 16.4875 180.999 11.7613 181.388 7.31198C181.405 7.10378 181.421 6.91848 181.44 6.71028L182.009 0.222691H186.241L185.673 6.71028L185.492 8.79438C185.111 13.1521 184.403 18.3176 180.474 22.0027ZM187.395 21.0762L189.167 0.824396H193.351L191.577 21.0991L187.395 21.0762ZM194.424 21.5384L196.293 0.174805H200.48L198.608 21.5613L194.424 21.5384Z" fill="#1A1311"/>
<path d="M188.661 48.0758L186.876 44.553C186.797 44.6467 186.743 44.7404 186.668 44.8091C185.458 46.1291 184.224 46.685 182.97 46.685C182.317 46.685 181.68 46.5247 181.026 46.2686C178.465 45.2505 177.609 42.2607 177.876 39.2251C177.942 38.461 178.078 37.6969 178.286 36.9557C179.454 32.598 183.418 27.9863 190.21 27.9863H190.511C198.082 28.1279 200.157 33.3871 199.785 37.649C199.772 37.7656 199.764 37.8822 199.754 37.9967C199.231 42.0983 196.943 46.9869 188.661 48.0758ZM182.173 37.9509C182.063 38.4131 181.977 38.8545 181.942 39.2709C181.8 40.8699 182.212 42.0296 182.86 42.3294C182.929 42.3523 182.972 42.3773 183.043 42.3773C183.322 42.3773 183.62 42.1441 183.782 41.913C185.206 39.7123 186.447 35.6107 187.338 31.8339C184.821 32.6917 182.906 34.8924 182.173 37.9509ZM195.433 37.9509C195.446 37.7885 195.483 37.6261 195.496 37.4658C195.773 34.3136 194.22 32.4127 191.813 31.7173C190.293 38.2049 188.49 42.3294 187.112 44.2532C192.514 43.6265 194.913 41.7735 195.433 37.9509Z" fill="#1A1311"/>
<path d="M197.066 68.5422C197.626 69.8393 198.404 71.0448 199.429 72.0858L196.083 75.238C193.312 72.0858 191.973 67.1972 192.06 62.215H190.384C191.852 64.07 192.296 67.243 191.988 70.7429C191.64 74.7279 190.401 75.8647 185.562 75.8647L184.467 72.6896C181.89 74.2407 179.21 75.3546 179.21 75.3546L177.336 71.7839C177.336 71.7839 183.243 70.4639 187.78 67.0119C187.796 66.8037 187.707 66.5039 187.672 66.3623C183.807 69.0752 178.91 70.5576 178.91 70.5576L177.484 67.7073C177.484 67.7073 182.908 66.5955 186.833 64.2782C186.708 64.1158 186.583 63.9305 186.452 63.8389C183.135 65.5982 179.541 66.5268 179.541 66.5268L178.146 63.3288C178.146 63.3288 181.361 63.0269 184.128 62.215H180.476L180.605 60.7575H178.813L179.316 55.0091H187.597L187.703 53.8057H192.121L192.017 55.0091H200.32L199.814 60.7804H198.069L197.944 62.215H195.852C195.835 63.1893 195.916 64.1387 196.041 65.0881C196.937 64.4406 197.678 63.6765 198.244 63.0498L199.97 66.4331C199.162 67.1743 198.167 67.8926 197.066 68.5422ZM196.068 58.3924H182.952L182.887 59.1336H196.004L196.068 58.3924ZM187.984 70.2557C187.282 70.8366 186.441 71.4154 185.49 71.9255C187.536 71.9255 187.853 71.7631 187.946 70.6742L187.984 70.2557Z" fill="#1A1311"/>
<path d="M152.148 89.0814H137.717L136.175 79.7456H119.568L121.111 89.0814H91.4548L90.545 99.4853H122.829L125.877 117.947C111.326 110.722 83.8658 106.645 91.7796 145.515H115.458C115.458 145.515 92.4479 107.724 144.588 130.684L139.435 99.4853H151.238L152.148 89.0814Z" fill="#1A1311"/>
<path d="M118.809 134.284C117.395 134.284 116.25 135.429 116.25 136.843C116.25 138.257 117.395 139.404 118.809 139.404C120.222 139.404 121.368 138.257 121.368 136.843C121.368 135.429 120.222 134.284 118.809 134.284Z" fill="#1A1311"/>
<path d="M153.462 14.5366C150.149 14.5366 147.228 17.2224 146.939 20.5349C146.649 23.8474 149.1 26.5332 152.412 26.5332C155.725 26.5332 158.646 23.8474 158.935 20.5349C159.225 17.2224 156.774 14.5366 153.462 14.5366Z" fill="#1A1311"/>
<path d="M144.734 24.978C143.079 24.978 141.617 26.3209 141.474 27.9761C141.328 29.6334 142.552 30.9763 144.209 30.9763C145.865 30.9763 147.326 29.6334 147.47 27.9761C147.616 26.3209 146.389 24.978 144.734 24.978Z" fill="#1A1311"/>
<path d="M126.714 37.6992L128.286 19.7397H143.676L144.586 9.33371H129.196L130.014 0H113.406L112.589 9.33371H97.2012L96.2913 19.7397H111.68L110.33 35.1612C108.906 35.0883 107.455 35.0467 105.975 35.0467C94.3904 35.0467 84.3801 42.161 83.6118 50.9367C82.8436 59.7145 91.611 66.8288 103.193 66.8288C114.243 66.8288 123.843 60.3495 125.373 52.1359L125.386 52.1484C137.463 56.1355 144.667 66.8288 144.667 66.8288C144.667 66.8288 144.759 65.767 146.297 48.1926C144.382 44.9904 137.241 40.5141 126.714 37.6992ZM99.7912 48.8734C98.3775 48.8734 97.2324 47.7283 97.2324 46.3146C97.2324 44.9009 98.3775 43.7537 99.7912 43.7537C101.205 43.7537 102.35 44.9009 102.35 46.3146C102.35 47.7283 101.205 48.8734 99.7912 48.8734Z" fill="#1A1311"/>
<path d="M119.252 190.293C119.252 188.879 118.105 187.734 116.693 187.734C115.278 187.734 114.13 188.879 114.13 190.293C114.13 191.706 115.278 192.852 116.693 192.852C118.105 192.852 119.252 191.706 119.252 190.293Z" fill="#1A1311"/>
<path d="M156.643 164.734C154.863 162.86 152.55 161.921 149.704 161.921C147.851 161.921 146.06 162.333 144.334 163.153C142.608 163.976 140.922 165.196 139.275 166.816C140.422 166.678 141.311 166.893 141.944 167.459C142.577 168.025 143.127 168.971 143.589 170.289C143.805 171.005 144.426 174.617 144.967 175.566C145.586 176.699 146.379 177.551 147.349 178.117C148.317 178.685 149.483 178.968 150.849 178.968C152.979 178.968 154.817 178.256 156.366 176.832C157.913 175.408 158.783 173.609 158.973 171.434C159.2 168.842 158.423 166.61 156.643 164.734Z" fill="#1A1311"/>
<path d="M116.033 167.796L118.626 158.434H102.019L99.4334 167.769H88.5424L87.6325 178.173H96.554L83.5122 225.262H100.118L112.931 178.998C126.61 183.938 127.959 210.068 106.668 225.262H121.492C144.865 210.878 156.346 168.948 116.033 167.796Z" fill="#1A1311"/>
<path d="M15.481 25.6368V31.8975L31.7166 23.7797L47.9543 31.8975V25.6368L31.7166 17.519L15.481 25.6368Z" fill="#1A1311"/>
<path d="M37.9113 31.8984H36.5122C33.0103 31.8984 30.6971 32.5459 29.2834 37.6636C27.8677 42.7812 26.5976 44.5696 22.9229 46.8182C23.7515 46.8182 32.1233 47.9446 34.3802 39.3646C36.1604 32.5897 37.9113 31.8984 37.9113 31.8984Z" fill="#1A1311"/>
<path d="M47.9553 31.8984H46.5562C43.0542 31.8984 40.7411 32.5459 39.3274 37.6636C37.9116 42.7812 36.6416 44.5696 32.9668 46.8182C33.7954 46.8182 42.1673 47.9446 44.4242 39.3646C46.2043 32.5897 47.9553 31.8984 47.9553 31.8984Z" fill="#1A1311"/>
<path d="M27.8698 31.8984H26.4707C22.9688 31.8984 20.6556 32.5459 19.2419 37.6636C17.8262 42.7812 16.5561 44.5696 12.8813 46.8182C13.71 46.8182 22.0818 47.9446 24.3387 39.3646C26.1189 32.5897 27.8698 31.8984 27.8698 31.8984Z" fill="#1A1311"/>
<path d="M31.7175 8.74847C45.1757 8.74847 56.0876 19.6583 56.0876 33.1165C56.0876 46.5768 45.1757 57.4866 31.7175 57.4866C18.2593 57.4866 7.34746 46.5768 7.34746 33.1165C7.34746 19.6583 18.2593 8.74847 31.7175 8.74847ZM31.7175 1.39893C14.2285 1.39893 0 15.6275 0 33.1165C0 50.6055 14.2285 64.8361 31.7175 64.8361C49.2065 64.8361 63.4351 50.6055 63.4351 33.1165C63.4351 15.6275 49.2065 1.39893 31.7175 1.39893Z" fill="#1A1311"/>
</svg>
