<svg width="213" height="211" viewBox="0 0 213 211" fill="none" xmlns="http://www.w3.org/2000/svg">
<path d="M109.706 83.9593C102.527 103.47 80.8904 119.287 61.3799 119.287C41.8694 119.287 31.8741 103.47 39.0509 83.9593C46.2298 64.4488 67.8664 48.6318 87.3769 48.6318C106.887 48.6318 116.885 64.4488 109.706 83.9593Z" fill="#00E2FF" stroke="black" stroke-width="2"/>
<path d="M74.7298 173.784C67.5509 193.294 45.9143 209.111 26.4038 209.111C6.8933 209.111 -3.10196 193.294 4.07483 173.784C11.2538 154.273 32.8903 138.456 52.4008 138.456C71.9114 138.456 81.9087 154.273 74.7298 173.784Z" fill="#00E2FF" stroke="black" stroke-width="2"/>
<path d="M159.282 60.5555C152.103 80.066 130.467 95.883 110.956 95.883C91.4455 95.883 81.4503 80.066 88.6271 60.5555C95.806 41.0449 117.443 25.228 136.953 25.228C156.464 25.228 166.461 41.0449 159.282 60.5555Z" fill="#00E2FF" stroke="black" stroke-width="2"/>
<path d="M208.858 37.1516C201.679 56.6621 180.043 72.4791 160.532 72.4791C141.022 72.4791 131.026 56.6621 138.203 37.1516C145.382 17.6411 167.019 1.8241 186.529 1.8241C206.04 1.8241 216.037 17.6411 208.858 37.1516Z" fill="#00E2FF" stroke="black" stroke-width="2"/>
</svg>
