<svg width="985" height="194" viewBox="0 0 985 194" fill="none" xmlns="http://www.w3.org/2000/svg">
<mask id="mask0_1_1168" style="mask-type:alpha" maskUnits="userSpaceOnUse" x="0" y="0" width="985" height="194">
<rect x="0.5" y="0.5" width="984" height="193" fill="white" stroke="#707070"/>
</mask>
<g mask="url(#mask0_1_1168)">
<path d="M169.462 169C147.5 209.977 101.198 243.196 66.045 243.196C30.8925 243.196 20.1983 209.977 42.1618 169C64.124 128.023 110.425 94.8042 145.578 94.8042C180.731 94.8042 191.424 128.023 169.462 169Z" fill="#00E2FF" stroke="black" stroke-width="2"/>
<path d="M247.462 169C225.5 209.977 179.198 243.196 144.045 243.196C108.892 243.196 98.1983 209.977 120.162 169C142.124 128.023 188.425 94.8042 223.578 94.8042C258.731 94.8042 269.424 128.023 247.462 169Z" fill="#00E2FF" stroke="black" stroke-width="2"/>
<path d="M325.462 169C303.5 209.977 257.198 243.196 222.045 243.196C186.892 243.196 176.198 209.977 198.162 169C220.124 128.023 266.425 94.8042 301.578 94.8042C336.731 94.8042 347.424 128.023 325.462 169Z" fill="#00E2FF" stroke="black" stroke-width="2"/>
<path d="M404.462 169C382.5 209.977 336.198 243.196 301.045 243.196C265.892 243.196 255.198 209.977 277.162 169C299.124 128.023 345.425 94.8042 380.578 94.8042C415.731 94.8042 426.424 128.023 404.462 169Z" fill="#00E2FF" stroke="black" stroke-width="2"/>
<path d="M482.462 169C460.5 209.977 414.198 243.196 379.045 243.196C343.892 243.196 333.198 209.977 355.162 169C377.124 128.023 423.424 94.8042 458.578 94.8042C493.731 94.8042 504.424 128.023 482.462 169Z" fill="#00E2FF" stroke="black" stroke-width="2"/>
<path d="M561.462 169C539.5 209.977 493.197 243.196 458.044 243.196C422.893 243.196 412.198 209.977 434.163 169C456.125 128.023 502.424 94.8042 537.578 94.8042C572.73 94.8042 583.423 128.023 561.462 169Z" fill="#00E2FF" stroke="black" stroke-width="2"/>
<path d="M659.462 114.805C637.5 155.782 591.198 189 556.045 189C520.892 189 510.198 155.782 532.162 114.805C554.124 73.8275 600.425 40.6089 635.579 40.6089C670.731 40.6089 681.424 73.8275 659.462 114.805Z" fill="#00E2FF" stroke="black" stroke-width="2"/>
<path d="M737.462 114.805C715.5 155.782 669.198 189 634.045 189C598.892 189 588.198 155.782 610.162 114.805C632.124 73.8275 678.425 40.6089 713.578 40.6089C748.731 40.6089 759.424 73.8275 737.462 114.805Z" fill="#00E2FF" stroke="black" stroke-width="2"/>
<path d="M816.462 114.805C794.5 155.782 748.198 189 713.045 189C677.892 189 667.198 155.782 689.162 114.805C711.124 73.8275 757.425 40.6089 792.578 40.6089C827.731 40.6089 838.424 73.8275 816.462 114.805Z" fill="#00E2FF" stroke="black" stroke-width="2"/>
<path d="M894.462 114.805C872.5 155.782 826.198 189 791.045 189C755.892 189 745.198 155.782 767.162 114.805C789.124 73.8275 835.425 40.6089 870.578 40.6089C905.731 40.6089 916.424 73.8275 894.462 114.805Z" fill="#00E2FF" stroke="black" stroke-width="2"/>
<path d="M973.462 114.805C951.5 155.782 905.198 189 870.045 189C834.892 189 824.198 155.782 846.162 114.805C868.124 73.8275 914.425 40.6089 949.578 40.6089C984.731 40.6089 995.424 73.8275 973.462 114.805Z" fill="#00E2FF" stroke="black" stroke-width="2"/>
<path d="M1051.46 114.805C1029.5 155.782 983.198 189 948.045 189C912.892 189 902.198 155.782 924.162 114.805C946.124 73.8275 992.424 40.6089 1027.58 40.6089C1062.73 40.6089 1073.42 73.8275 1051.46 114.805Z" fill="#00E2FF" stroke="black" stroke-width="2"/>
</g>
</svg>
