<svg width="184" height="387" viewBox="0 0 184 387" fill="none" xmlns="http://www.w3.org/2000/svg">
<path d="M69.6482 152.404C71.8885 148.535 72.8185 144.424 73.4326 140.244C73.6715 138.615 72.5796 138.14 71.4517 138.204C66.1233 138.5 60.8205 137.968 55.4664 140.609C53.0796 141.786 50.3152 142.045 47.7127 142.644C46.017 143.034 44.3085 143.33 42.6026 143.589C36.3184 144.55 30.5352 143.502 25.1117 141.182C23.4084 140.452 23.2465 139.173 24.7597 137.752C26.142 136.457 27.2698 134.718 29.3406 134.302C29.6823 134.232 30.1627 133.59 30.2423 133.189C30.3477 132.67 30.1113 132.128 30.0214 131.596C29.6797 132.002 29.32 132.398 29.0014 132.819C28.873 132.989 28.837 133.223 28.4645 133.395C28.5775 130.109 28.8935 126.787 28.7419 123.545C28.5929 120.428 28.6623 117.248 27.4753 114.321C26.3757 111.606 25.8465 108.61 24.8445 105.838C24.3846 104.569 23.452 103.495 22.6248 102.424C21.2785 100.679 21.5046 99.7799 23.6935 98.6033C31.956 94.1612 38.8105 87.9798 44.8763 80.8298C45.069 80.6011 45.1769 80.3031 45.6265 79.4913C43.9565 79.7482 42.6283 79.7379 41.4131 80.1798C38.7437 81.1535 36.1206 82.3225 33.5026 83.4735C31.568 84.3264 30.435 84.1029 29.7208 82.5794C29.0708 81.1895 29.451 80.2671 31.4755 79.314C33.1789 78.5098 34.9927 77.9832 36.7757 77.4154C39.7739 76.4596 42.8055 75.6555 45.7858 74.633C51.2504 72.7626 56.7664 71.645 62.344 71.1774C63.1508 71.1081 63.9472 71.2982 65.2035 71.4087C64.3634 72.3644 63.9344 73.2174 63.2972 73.518C60.5508 74.8077 57.7889 76.1591 54.9423 77.03C53.3905 77.5079 52.1213 78.0577 51.1502 79.332C47.913 83.5942 43.7613 86.8776 39.6866 90.2638C38.5073 91.2426 37.4668 92.4219 36.4803 93.6037C36.1617 93.9865 36.2208 94.6673 36.1077 95.2145C36.7423 95.1734 37.5722 95.3892 37.9807 95.0578C44.0747 90.1456 51.217 87.5636 57.9842 84.1414C61.6735 82.2737 65.1778 79.9409 68.9006 78.1733C73.1217 76.1693 77.5329 74.7743 82.0624 74.8102C84.1922 74.8257 85.0914 75.7506 85.3303 77.9189C86.2039 85.7729 85.9007 93.7784 84.7805 101.812C83.5088 110.928 81.8543 120.04 80.2845 129.153C80.0327 130.605 80.5029 130.864 81.808 130.89C83.5499 130.926 85.2918 131.129 86.9464 131.509C88.326 131.828 88.3029 132.714 87.1236 133.703C85.0786 135.422 82.9076 136.876 80.3796 137.606C79.3057 137.917 78.8689 138.556 78.7148 139.625C78.3063 142.482 77.741 145.336 77.3428 148.196C77.1321 149.701 76.5233 150.762 74.9689 151.276C73.245 151.847 71.5314 152.466 69.8126 153.062L69.6482 152.404ZM46.8366 95.0861C46.8674 95.2582 46.8957 95.4278 46.9265 95.5973C48.4757 95.6153 50.0249 95.5357 50.3178 97.4703C50.7366 100.232 51.3069 102.955 51.8053 105.697C51.9415 106.447 51.9055 107.292 52.2267 107.934C52.4348 108.351 53.1747 108.787 53.6243 108.69C58.1846 107.685 58.1794 107.654 59.3844 103.158C59.482 102.799 59.613 102.442 59.6901 102.079C60.4275 98.5262 61.7763 94.9987 61.2188 91.3942C61.1494 90.9369 62.0101 89.8707 62.583 89.6651C64.2863 89.0486 66.0591 88.6606 67.8138 88.3035C69.4992 87.9592 70.5988 88.6863 70.627 90.346C70.6887 93.745 71.0895 97.2031 70.4343 100.574C69.1112 107.385 68.51 114.321 65.4913 120.942C65.4142 121.112 65.3859 121.304 65.3654 121.484C64.8978 125.916 62.4186 129.297 58.6984 131.877C57.5423 132.681 56.065 133.087 54.7059 133.395C54.3103 133.485 53.8709 132.519 53.3443 132.19C52.982 131.964 52.3654 131.787 51.9826 131.948C49.9581 132.812 47.9721 133.791 45.8295 134.798C46.1763 135.109 46.2765 135.27 46.4255 135.317C46.7004 135.404 46.9984 135.473 47.2964 135.468C52.2138 135.412 57.1338 135.381 62.0769 133.947C65.8355 132.855 69.5891 131.74 73.7563 130.512C73.6484 128.899 73.5173 126.933 73.3863 124.968C73.2142 124.978 73.042 124.989 72.8673 124.996C72.4177 126.728 71.9656 128.457 71.4081 130.587C71.2077 130.04 71.128 129.939 71.1434 129.842C72.1249 122.931 73.561 116.017 72.2199 109.24C71.796 107.097 72.1634 104.705 72.1917 102.424C72.2764 96.029 72.3278 89.6497 70.8685 83.5428C70.5474 82.1966 70.0464 81.7239 68.6257 82.4664C62.9118 85.4594 57.1569 88.3574 51.4945 91.4584C49.8091 92.3808 48.3832 93.8632 46.8366 95.0861ZM41.1587 132.169C41.2897 130.068 41.3309 127.971 41.5698 125.872C42.3251 119.257 43.2654 112.639 43.8923 106.028C44.1133 103.706 43.6303 101.406 43.4453 98.7523C42.2121 99.6952 41.5364 100.294 40.7888 100.764C39.2961 101.699 38.5587 102.768 39.1291 104.448C39.4194 105.306 39.3886 106.313 39.4528 107.264C39.9461 114.568 39.4965 121.936 38.2376 129.369C37.8471 131.668 38.4508 132.213 41.1587 132.169Z" fill="#1A1311"/>
<path d="M56.8102 239.003C56.9207 237.166 56.9438 235.257 57.1801 233.346C57.3548 231.94 56.692 231.789 55.3997 232.238C50.4181 233.975 45.457 235.763 40.46 237.446C36.411 238.81 32.3337 240.082 28.2462 241.315C27.4549 241.554 26.4838 241.595 25.7387 241.408C25.0938 241.243 24.4259 240.717 24.1972 240.177C24.061 239.848 24.6956 239.173 25.0604 238.692C25.2891 238.386 25.6539 238.153 25.898 237.482C24.6931 237.6 23.4881 237.716 22.129 237.849C22.5529 235.583 23.0334 233.269 23.411 230.954C24.0071 227.27 24.6057 223.583 25.0399 219.896C25.1324 219.097 24.2666 218.324 24.2846 217.504C24.3539 214.321 24.5543 211.128 24.7958 207.934C25.135 203.443 25.677 198.942 25.8826 194.459C25.9674 192.627 25.4638 190.821 25.0964 189.035C24.8395 187.789 24.5389 186.461 26.2757 185.832C30.3632 184.344 32.9247 181.346 35.7918 178.646C38.2351 176.344 40.6938 174.044 42.9675 171.627C44.3343 170.173 45.4904 168.539 46.513 166.892C47.5252 165.263 50.9345 164.014 52.3373 165.06C52.7509 165.368 52.8999 166.337 52.6481 166.845C50.693 170.789 48.1264 174.329 44.2521 177.307C41.3027 179.573 38.898 182.412 36.3339 185.053C36.0128 185.385 36.0745 186.117 36.1849 186.605C36.5318 188.172 37.061 189.693 37.3744 191.268C37.5954 192.388 37.9499 192.501 39.1626 191.823C46.0402 187.987 53.2159 184.568 60.9414 183.021C64.6718 182.273 68.6848 182.988 72.4512 183.458C73.4789 183.586 74.4809 185.104 74.7918 186.199C75.822 189.798 75.6139 193.585 75.1309 197.411C74.6145 201.509 74.4449 205.609 73.9311 209.709C73.6048 212.322 72.942 214.935 72.4076 217.545C71.457 222.19 70.5192 226.835 69.5018 231.475C69.191 232.901 68.636 234.309 68.1684 235.722C68.1016 235.92 67.9064 236.105 67.7445 236.277C65.8742 238.294 59.5566 239.928 56.8102 239.003ZM61.3422 208.99C59.7981 209.239 58.272 209.884 57.2084 209.576C54.6367 208.828 52.2833 209.612 49.9556 210.542C47.9003 211.359 46.0274 212.61 43.9849 213.465C41.9964 214.298 39.9025 214.891 37.842 215.552C36.6011 215.947 36.0693 216.677 35.892 217.769C35.5709 219.747 35.2009 221.725 34.7256 223.693C33.7596 227.704 32.7063 231.709 31.7069 235.648C35.6839 234.527 39.5737 233.382 43.4891 232.346C47.7307 231.224 51.993 230.18 56.2578 229.158C57.3266 228.904 57.8353 228.462 58.0151 227.496C59.0531 221.887 60.1527 216.284 61.2137 210.678C61.3191 210.123 61.3011 209.56 61.3422 208.99ZM37.0893 210.58C37.5312 210.58 37.7161 210.619 37.8806 210.575C42.112 209.424 46.328 208.206 50.5722 207.13C53.4292 206.405 56.3323 205.573 59.2046 205.339C62.9094 205.036 62.3313 205.547 62.9659 202.449C63.8523 198.13 64.7694 193.793 64.0475 189.521C63.6673 187.291 62.0924 185.68 60.0576 185.924C56.805 186.312 53.7015 187.365 50.9139 189.2C47.1964 191.643 43.4942 194.107 39.7201 196.478C38.3995 197.311 37.5903 197.943 37.7573 199.566C38.009 202.025 37.6622 204.592 37.5132 207.115C37.4438 208.258 37.2357 209.406 37.0893 210.58Z" fill="#1A1311"/>
<path d="M174.475 154.125C170.804 156.096 166.56 156.247 162.328 156.499C160.967 156.581 159.6 156.656 158.246 156.661C155.376 156.669 153.013 155.559 151.219 153.655C148.144 150.387 144.236 149.868 139.73 151.268C136.598 152.242 133.834 151.554 131.154 150.654C129.995 150.266 128.937 149.367 128.177 148.414C125.674 145.285 122.532 143.396 118.236 143.024C116.936 142.911 115.444 141.945 114.814 140.863C113.925 139.337 112.926 139.219 111.323 139.705C106.616 141.13 105.797 140.475 106.472 135.679C107.621 127.511 110.033 119.57 113.784 111.875C114.755 109.884 115.703 107.873 116.5 105.828C117.476 103.325 119.344 102.169 121.73 102.007C123.436 101.894 124.513 102.66 124.235 104.684C123.791 107.937 123.47 111.192 123.118 114.447C123.069 114.879 123.138 115.308 123.159 115.947C125.69 115.02 128.056 114.028 130.471 113.299C133.806 112.294 137.169 111.243 140.539 110.704C142.284 110.424 142.754 109.895 142.644 108.451C142.497 106.524 142.366 104.589 142.06 102.706C141.783 100.995 142.548 100.198 144.172 99.659C148.971 98.0609 149.467 98.3179 151.348 102.534C151.957 103.898 153.174 104.941 154.212 106.259C154.724 105.689 155.076 105.285 155.441 104.892C156.645 103.6 157.763 102.922 159.374 104.021C160.389 104.718 161.869 104.787 163.122 105.18C165.465 105.915 165.738 107.194 163.77 109.103C162.339 110.493 160.769 111.811 159.094 112.859C157.249 114.013 156.579 115.367 156.263 117.399C155.348 123.282 154.338 129.181 152.915 135.018C152.306 137.51 152.429 139.412 154.11 140.853C158.259 144.406 162.349 148.059 166.819 151.207C168.98 152.728 171.945 153.203 174.475 154.125ZM140.781 129.366C141.117 128.667 141.279 128.462 141.308 128.251C141.557 126.44 141.839 124.624 142.004 122.812C142.276 119.796 141.405 119.064 138.294 119.549C136.246 119.871 134.191 120.325 132.151 120.477C128.991 120.716 125.841 120.747 122.044 120.888C121.409 124.318 120.669 128.315 119.855 132.722C127.239 129.703 133.872 126.08 140.781 129.366Z" fill="#1A1311"/>
<path d="M163.585 92.9612C163.644 90.577 163.754 88.1774 163.747 85.8138C163.744 84.1644 164.692 81.9086 162.809 81.3151C162.688 81.2766 162.773 80.6009 162.791 80.2181C163.089 73.9648 163.407 67.7063 163.677 61.4606C163.711 60.713 163.495 60.0219 163.323 58.8016C162.734 59.9988 162.385 60.7105 161.737 62.0336C162.233 59.2178 162.67 57.0443 162.986 54.881C163.808 49.2443 164.551 43.6101 165.378 37.9734C166.21 32.3161 167.107 26.6562 167.975 20.9963C168.014 20.7574 168.063 20.5159 168.091 20.277C168.584 15.953 168.227 15.7013 164.82 17.2196C162.914 18.07 160.972 18.6224 159.045 19.1851C158.564 19.3264 158.084 18.9898 157.604 18.8742C157.858 18.2165 157.994 17.3532 158.387 16.937C160.229 14.987 162.082 13.0088 164.052 11.344C165.311 10.2803 166.313 9.26038 167.323 7.6752C168.44 5.92046 170.28 4.66928 171.906 3.59023C173.607 2.46494 175.418 1.69676 177.196 0.959406C181.546 -0.846716 182.596 0.0679059 183.059 5.33212C183.483 10.1442 182.638 15.0615 181.402 19.9969C177.684 34.8493 173.8 49.6836 170.144 64.5436C168.091 72.8857 166.354 81.2663 164.492 89.629C164.25 90.7157 164.104 91.8076 163.913 92.8969C163.803 92.9201 163.695 92.9406 163.585 92.9612Z" fill="#1A1311"/>
<path d="M36.9585 298.99C35.9539 300.763 35.4632 302.548 34.3148 303.45C32.4881 304.884 30.2581 305.826 28.1308 306.782C26.9978 307.293 25.7261 307.45 24.5135 307.674C20.5364 308.406 18.589 307.419 17.2273 303.915C15.5188 299.522 15.5831 294.671 15.2773 289.905C14.9819 285.327 14.5605 280.769 14.0467 276.237C13.7923 273.987 13.8617 273.208 16.0995 272.569C18.6275 271.847 21.3328 271.366 23.8326 271.5C26.0961 271.621 26.2322 274.041 26.3812 275.898C26.6613 279.343 26.6202 282.856 26.8771 286.306C27.1237 289.574 27.3858 292.86 27.9973 296.028C28.7552 299.956 31.0443 300.927 35.0188 299.46C35.5121 299.278 36.0362 299.208 36.9585 298.99Z" fill="#1A1311"/>
<path d="M115.834 61.5144C116.613 57.3446 117.579 53.5243 117.247 49.4239C116.893 45.0127 118.098 39.9822 118.442 35.2524C118.652 32.3749 118.683 29.6234 117.098 27.473C115.48 25.2763 116.088 23.3186 118.663 21.5922C121.445 19.7269 124.292 18.0364 127.151 16.5206C129.736 15.1513 131.953 16.7698 132.6 20.2305C133.484 24.9321 133.238 29.9445 132.189 35.1034C130.448 43.6715 127.719 52.029 124.77 60.3685C123.526 63.8806 121.579 64.7926 119.336 65.697C117.728 66.347 117.203 65.7407 117.697 63.5517C118.27 61.016 118.01 60.8156 115.834 61.5144Z" fill="#1A1311"/>
<path d="M60.9134 289.24C61.9873 284.161 61.2474 279.644 59.729 275.343C58.5626 272.045 56.7077 269.314 53.0492 268.211C52.1962 267.952 51.1454 266.855 51.1994 266.089C51.2585 265.267 52.3761 264.075 53.2804 263.587C55.9806 262.125 58.8195 262.017 61.4581 262.814C63.8165 263.525 64.0349 265.884 64.3509 267.978C64.8057 270.963 66.1057 273.329 67.8912 275.662C69.5047 277.771 70.2343 280.628 71.1387 283.251C71.6653 284.772 71.673 286.517 72.0867 288.094C72.4412 289.443 71.894 290.566 70.7404 291.051C68.0711 292.177 65.3324 293.153 62.5756 293.862C62.1003 293.983 61.1806 292.593 60.8646 291.719C60.5897 290.956 60.8826 289.934 60.9134 289.24Z" fill="#1A1311"/>
<path d="M136.161 51.7029C136.739 46.9551 137.276 42.2124 137.916 37.4594C138.194 35.399 138.638 33.3179 139.108 31.2549C139.229 30.7282 139.671 30.0345 140.064 29.7571C142.535 28.0049 144.989 26.0395 147.538 24.7344C151.155 22.8846 153.01 25.0632 151.846 29.6826C150.51 34.9982 148.822 40.265 147.437 45.5754C146.772 48.1266 146.541 50.7343 145.932 53.2983C145.696 54.2977 145.056 55.7801 144.432 56.1244C141.659 57.6633 138.838 59.0173 136.012 60.1297C134.579 60.6949 133.872 59.842 134.491 57.6993C135.057 55.7288 135.481 53.7325 135.966 51.7466C136.03 51.7311 136.097 51.7183 136.161 51.7029Z" fill="#1A1311"/>
<path d="M43.8898 370.834C44.3522 369.57 44.9868 368.319 45.2309 367.045C45.5392 365.424 45.3542 363.772 45.7062 362.153C46.1892 359.941 46.7672 357.721 47.6973 355.553C48.6093 353.428 50.2613 351.391 51.14 349.264C52.5299 345.898 53.4728 342.481 54.7599 339.105C55.2121 337.918 56.0342 336.762 56.8384 335.621C58.4467 333.337 60.0344 331.046 61.915 328.818C62.4134 328.232 63.8265 327.747 65.0468 327.446C67.002 326.961 69.1292 326.634 71.2308 326.313C71.7626 326.231 72.464 326.416 73.0883 326.48C72.9522 326.737 72.8674 327.004 72.6695 327.246C72.0041 328.055 71.2128 328.836 70.6219 329.658C66.4265 335.521 62.7526 341.469 59.8648 347.547C56.7407 354.117 53.5113 360.676 49.3158 367.091C48.8354 367.826 48.54 368.594 48.224 369.354C47.5431 370.981 47.3016 371.073 43.8898 370.834Z" fill="#1A1311"/>
<path d="M30.7307 384.559C29.256 384.592 28.7037 383.996 28.5161 383.482C28.3645 383.074 28.8784 382.583 29.2509 382.164C29.4153 381.979 29.9523 381.879 30.3351 381.751C31.7815 381.265 33.2614 380.793 33.2228 379.904C36.2827 379.644 39.1191 379.379 41.9708 379.171C46.5491 378.835 47.6692 380.767 46.7007 382.337C45.4212 384.41 42.4641 385.656 38.3406 386.221C37.1562 386.383 36.0001 386.622 34.7926 386.704C34.2043 386.745 33.2896 386.601 32.9428 386.378C32.077 385.82 31.4527 385.168 30.7333 384.556C31.224 384.824 31.6788 385.114 32.226 385.348C32.5009 385.466 33.0173 385.576 33.2871 385.522C33.5877 385.461 33.9525 385.194 33.9011 385.047C33.8009 384.762 33.5414 384.433 33.1278 384.251C32.876 384.138 32.1977 384.238 31.7404 384.294C31.3807 384.341 31.0647 384.469 30.7307 384.559Z" fill="#1A1311"/>
<path d="M12.6798 371.621C12.8931 370.423 13.1525 369.329 13.2656 368.227C13.3478 367.415 13.2039 366.595 13.2347 365.778C13.2604 365.02 13.3838 364.265 13.466 363.507C13.6792 361.524 14.1288 359.502 16.5207 357.929C18.332 356.737 18.982 355.427 19.4007 354.063C19.6834 353.133 19.2826 352.133 19.077 351.17C18.8689 350.204 18.4193 349.246 18.2857 348.28C18.2086 347.709 18.6917 347.129 18.6608 346.553C18.5195 343.85 19.2209 341.256 21.1837 338.725C22.2037 337.41 22.5043 335.945 23.0669 334.542C24.0535 332.073 25.0709 329.61 25.9059 327.128C26.2347 326.157 26.2373 325.139 26.132 324.148C26.0574 323.423 26.6972 323.058 27.8918 322.973C29.9574 322.827 32.0564 322.768 34.1452 322.701C35.7047 322.65 36.4215 323.061 36.6861 323.839C37.855 327.264 37.4902 330.614 35.5736 333.931C33.9037 336.824 32.5549 339.765 30.9209 342.664C29.1148 345.865 27.08 349.03 25.2661 352.231C23.5422 355.268 21.7001 358.297 20.4156 361.388C19.2158 364.273 18.6377 367.227 17.8824 370.159C17.6768 370.947 17.0756 371.412 15.4468 371.469C14.7017 371.495 13.9593 371.549 12.6798 371.621ZM26.2707 337.826L25.5924 338.203L27.6195 338.943C27.7814 338.835 27.9458 338.73 28.1076 338.625C27.4962 338.358 26.8821 338.093 26.2707 337.826Z" fill="#1A1311"/>
<path d="M14.9405 377.298C14.6399 383.382 10.8941 384.143 7.29214 384.99C5.83028 385.332 4.22455 385.319 2.65223 385.286C2.09729 385.276 1.43958 384.721 0.830688 384.415C1.07476 383.883 1.1878 383.159 1.58602 382.853C3.75183 381.196 5.80716 379.274 8.26071 378.169C10.1336 377.329 12.5409 377.566 14.9405 377.298Z" fill="#1A1311"/>
</svg>
