<svg width="696" height="171" viewBox="0 0 696 171" fill="none" xmlns="http://www.w3.org/2000/svg">
<path d="M4.86005 2.45985H42.3701C51.0234 2.45985 57.5134 4.32985 61.84 8.06985C66.1667 11.8098 68.3301 17.0165 68.3301 23.6898C68.3301 27.4298 67.7801 30.5282 66.6801 32.9848C65.5801 35.4415 64.2967 37.4215 62.8301 38.9248C61.3634 40.4282 59.9151 41.5098 58.4851 42.1698C57.0551 42.8298 56.0101 43.2698 55.3501 43.4898V43.7099C56.5234 43.8565 57.7884 44.2232 59.1451 44.8098C60.5017 45.3965 61.7667 46.3315 62.94 47.6148C64.1134 48.8982 65.0851 50.5665 65.8551 52.6199C66.6251 54.6732 67.01 57.2398 67.01 60.3198C67.01 64.9398 67.3584 69.1382 68.0551 72.9148C68.7517 76.6915 69.8334 79.3865 71.3001 80.9998H56.5601C55.5334 79.3132 54.9284 77.4432 54.7451 75.3898C54.5617 73.3365 54.4701 71.3565 54.4701 69.4498C54.4701 65.8565 54.2501 62.7582 53.8101 60.1548C53.3701 57.5515 52.5634 55.3882 51.3901 53.6648C50.2167 51.9415 48.6217 50.6765 46.6051 49.8699C44.5884 49.0632 42.0034 48.6598 38.8501 48.6598H18.6101V80.9998H4.86005V2.45985ZM18.6101 38.2098H41.1601C45.5601 38.2098 48.8967 37.1648 51.1701 35.0748C53.4434 32.9848 54.5801 29.8498 54.5801 25.6698C54.5801 23.1765 54.2134 21.1415 53.4801 19.5648C52.7467 17.9882 51.7384 16.7598 50.4551 15.8798C49.1717 14.9998 47.7051 14.4132 46.0551 14.1199C44.4051 13.8265 42.7001 13.6798 40.9401 13.6798H18.6101V38.2098ZM79.0001 2.45985H92.7501V80.9998H79.0001V2.45985ZM97.37 2.45985H111.67L131.36 64.6098H131.58L151.71 2.45985H165.68L138.84 80.9998H123.55L97.37 2.45985ZM170.19 2.45985H226.73V14.3398H183.94V34.9098H223.54V46.1298H183.94V69.1199H227.5V80.9998H170.19V2.45985ZM236.19 2.45985H273.7C282.353 2.45985 288.843 4.32985 293.17 8.06985C297.497 11.8098 299.66 17.0165 299.66 23.6898C299.66 27.4298 299.11 30.5282 298.01 32.9848C296.91 35.4415 295.627 37.4215 294.16 38.9248C292.693 40.4282 291.245 41.5098 289.815 42.1698C288.385 42.8298 287.34 43.2698 286.68 43.4898V43.7099C287.853 43.8565 289.118 44.2232 290.475 44.8098C291.832 45.3965 293.097 46.3315 294.27 47.6148C295.443 48.8982 296.415 50.5665 297.185 52.6199C297.955 54.6732 298.34 57.2398 298.34 60.3198C298.34 64.9398 298.688 69.1382 299.385 72.9148C300.082 76.6915 301.163 79.3865 302.63 80.9998H287.89C286.863 79.3132 286.258 77.4432 286.075 75.3898C285.892 73.3365 285.8 71.3565 285.8 69.4498C285.8 65.8565 285.58 62.7582 285.14 60.1548C284.7 57.5515 283.893 55.3882 282.72 53.6648C281.547 51.9415 279.952 50.6765 277.935 49.8699C275.918 49.0632 273.333 48.6598 270.18 48.6598H249.94V80.9998H236.19V2.45985ZM249.94 38.2098H272.49C276.89 38.2098 280.227 37.1648 282.5 35.0748C284.773 32.9848 285.91 29.8498 285.91 25.6698C285.91 23.1765 285.543 21.1415 284.81 19.5648C284.077 17.9882 283.068 16.7598 281.785 15.8798C280.502 14.9998 279.035 14.4132 277.385 14.1199C275.735 13.8265 274.03 13.6798 272.27 13.6798H249.94V38.2098ZM337.28 2.45985H351.03V33.6998H386.78V2.45985H400.53V80.9998H386.78V45.5798H351.03V80.9998H337.28V2.45985ZM447.17 11.8098C442.99 11.8098 439.378 12.6532 436.335 14.3398C433.292 16.0265 430.817 18.2815 428.91 21.1048C427.003 23.9282 425.592 27.1365 424.675 30.7298C423.758 34.3232 423.3 37.9898 423.3 41.7298C423.3 45.4698 423.758 49.1365 424.675 52.7298C425.592 56.3232 427.003 59.5315 428.91 62.3549C430.817 65.1782 433.292 67.4332 436.335 69.1199C439.378 70.8065 442.99 71.6498 447.17 71.6498C451.35 71.6498 454.962 70.8065 458.005 69.1199C461.048 67.4332 463.523 65.1782 465.43 62.3549C467.337 59.5315 468.748 56.3232 469.665 52.7298C470.582 49.1365 471.04 45.4698 471.04 41.7298C471.04 37.9898 470.582 34.3232 469.665 30.7298C468.748 27.1365 467.337 23.9282 465.43 21.1048C463.523 18.2815 461.048 16.0265 458.005 14.3398C454.962 12.6532 451.35 11.8098 447.17 11.8098ZM447.17 0.589844C453.037 0.589844 458.298 1.68984 462.955 3.88985C467.612 6.08985 471.553 9.05985 474.78 12.7999C478.007 16.5398 480.482 20.9032 482.205 25.8899C483.928 30.8765 484.79 36.1565 484.79 41.7298C484.79 47.3765 483.928 52.6932 482.205 57.6798C480.482 62.6665 478.007 67.0298 474.78 70.7698C471.553 74.5098 467.612 77.4615 462.955 79.6248C458.298 81.7882 453.037 82.8699 447.17 82.8699C441.303 82.8699 436.042 81.7882 431.385 79.6248C426.728 77.4615 422.787 74.5098 419.56 70.7698C416.333 67.0298 413.858 62.6665 412.135 57.6798C410.412 52.6932 409.55 47.3765 409.55 41.7298C409.55 36.1565 410.412 30.8765 412.135 25.8899C413.858 20.9032 416.333 16.5398 419.56 12.7999C422.787 9.05985 426.728 6.08985 431.385 3.88985C436.042 1.68984 441.303 0.589844 447.17 0.589844ZM493.15 2.45985H506.9V48.2198C506.9 50.8598 507.028 53.5365 507.285 56.2498C507.542 58.9632 508.275 61.4015 509.485 63.5648C510.695 65.7282 512.528 67.5065 514.985 68.8998C517.442 70.2932 520.907 70.9898 525.38 70.9898C529.853 70.9898 533.318 70.2932 535.775 68.8998C538.232 67.5065 540.065 65.7282 541.275 63.5648C542.485 61.4015 543.218 58.9632 543.475 56.2498C543.732 53.5365 543.86 50.8598 543.86 48.2198V2.45985H557.61V52.7298C557.61 57.7898 556.84 62.1898 555.3 65.9298C553.76 69.6698 551.578 72.8048 548.755 75.3348C545.932 77.8648 542.54 79.7532 538.58 80.9998C534.62 82.2465 530.22 82.8699 525.38 82.8699C520.54 82.8699 516.14 82.2465 512.18 80.9998C508.22 79.7532 504.828 77.8648 502.005 75.3348C499.182 72.8048 497 69.6698 495.46 65.9298C493.92 62.1898 493.15 57.7898 493.15 52.7298V2.45985ZM579.17 54.8198C579.17 57.8265 579.683 60.3932 580.71 62.5198C581.737 64.6465 583.167 66.3882 585 67.7449C586.833 69.1015 588.942 70.0915 591.325 70.7148C593.708 71.3382 596.293 71.6498 599.08 71.6498C602.087 71.6498 604.653 71.3015 606.78 70.6049C608.907 69.9082 610.63 69.0098 611.95 67.9099C613.27 66.8099 614.223 65.5448 614.81 64.1148C615.397 62.6848 615.69 61.2365 615.69 59.7698C615.69 56.7632 615.012 54.5448 613.655 53.1148C612.298 51.6848 610.813 50.6765 609.2 50.0899C606.413 49.0632 603.168 48.0915 599.465 47.1748C595.762 46.2582 591.197 45.0665 585.77 43.5998C582.397 42.7198 579.592 41.5648 577.355 40.1348C575.118 38.7048 573.34 37.1098 572.02 35.3498C570.7 33.5898 569.765 31.7198 569.215 29.7398C568.665 27.7598 568.39 25.7432 568.39 23.6898C568.39 19.7298 569.215 16.3015 570.865 13.4048C572.515 10.5082 574.697 8.10651 577.41 6.19984C580.123 4.29318 583.203 2.88152 586.65 1.96484C590.097 1.04818 593.58 0.589844 597.1 0.589844C601.207 0.589844 605.075 1.12151 608.705 2.18485C612.335 3.24818 615.525 4.84318 618.275 6.96985C621.025 9.09652 623.207 11.7182 624.82 14.8348C626.433 17.9515 627.24 21.5632 627.24 25.6698H613.49C613.123 20.6098 611.4 17.0348 608.32 14.9448C605.24 12.8548 601.317 11.8098 596.55 11.8098C594.937 11.8098 593.287 11.9748 591.6 12.3048C589.913 12.6348 588.373 13.1849 586.98 13.9548C585.587 14.7248 584.432 15.7699 583.515 17.0899C582.598 18.4098 582.14 20.0598 582.14 22.0398C582.14 24.8265 583.002 27.0082 584.725 28.5848C586.448 30.1615 588.703 31.3532 591.49 32.1598C591.783 32.2332 592.938 32.5448 594.955 33.0948C596.972 33.6448 599.227 34.2498 601.72 34.9098C604.213 35.5698 606.652 36.2115 609.035 36.8349C611.418 37.4582 613.123 37.9165 614.15 38.2098C616.717 39.0165 618.953 40.1165 620.86 41.5098C622.767 42.9032 624.362 44.4982 625.645 46.2948C626.928 48.0915 627.882 50.0165 628.505 52.0698C629.128 54.1232 629.44 56.1765 629.44 58.2298C629.44 62.6298 628.542 66.3882 626.745 69.5048C624.948 72.6215 622.583 75.1698 619.65 77.1498C616.717 79.1299 613.38 80.5782 609.64 81.4949C605.9 82.4115 602.087 82.8699 598.2 82.8699C593.727 82.8699 589.51 82.3198 585.55 81.2198C581.59 80.1199 578.143 78.4332 575.21 76.1599C572.277 73.8865 569.93 70.9715 568.17 67.4148C566.41 63.8582 565.493 59.6598 565.42 54.8198H579.17ZM638.13 2.45985H694.67V14.3398H651.88V34.9098H691.48V46.1298H651.88V69.1199H695.44V80.9998H638.13V2.45985ZM38.3001 99.8098C34.1201 99.8098 30.5084 100.653 27.4651 102.34C24.4217 104.027 21.9467 106.282 20.0401 109.105C18.1334 111.928 16.7217 115.137 15.8051 118.73C14.8884 122.323 14.4301 125.99 14.4301 129.73C14.4301 133.47 14.8884 137.137 15.8051 140.73C16.7217 144.323 18.1334 147.532 20.0401 150.355C21.9467 153.178 24.4217 155.433 27.4651 157.12C30.5084 158.807 34.1201 159.65 38.3001 159.65C42.4801 159.65 46.0917 158.807 49.1351 157.12C52.1784 155.433 54.6534 153.178 56.5601 150.355C58.4667 147.532 59.8784 144.323 60.7951 140.73C61.7117 137.137 62.1701 133.47 62.1701 129.73C62.1701 125.99 61.7117 122.323 60.7951 118.73C59.8784 115.137 58.4667 111.928 56.5601 109.105C54.6534 106.282 52.1784 104.027 49.1351 102.34C46.0917 100.653 42.4801 99.8098 38.3001 99.8098ZM38.3001 88.5898C44.1667 88.5898 49.4284 89.6898 54.0851 91.8898C58.7417 94.0899 62.6834 97.0599 65.91 100.8C69.1367 104.54 71.6117 108.903 73.3351 113.89C75.0584 118.877 75.9201 124.157 75.9201 129.73C75.9201 135.377 75.0584 140.693 73.3351 145.68C71.6117 150.667 69.1367 155.03 65.91 158.77C62.6834 162.51 58.7417 165.462 54.0851 167.625C49.4284 169.788 44.1667 170.87 38.3001 170.87C32.4334 170.87 27.1717 169.788 22.5151 167.625C17.8584 165.462 13.9167 162.51 10.6901 158.77C7.46339 155.03 4.98839 150.667 3.26505 145.68C1.54172 140.693 0.680054 135.377 0.680054 129.73C0.680054 124.157 1.54172 118.877 3.26505 113.89C4.98839 108.903 7.46339 104.54 10.6901 100.8C13.9167 97.0599 17.8584 94.0899 22.5151 91.8898C27.1717 89.6898 32.4334 88.5898 38.3001 88.5898ZM94.1801 142.82C94.1801 145.827 94.6934 148.393 95.7201 150.52C96.7467 152.647 98.1767 154.388 100.01 155.745C101.843 157.102 103.952 158.092 106.335 158.715C108.718 159.338 111.303 159.65 114.09 159.65C117.097 159.65 119.663 159.302 121.79 158.605C123.917 157.908 125.64 157.01 126.96 155.91C128.28 154.81 129.233 153.545 129.82 152.115C130.407 150.685 130.7 149.237 130.7 147.77C130.7 144.763 130.022 142.545 128.665 141.115C127.308 139.685 125.823 138.677 124.21 138.09C121.423 137.063 118.178 136.092 114.475 135.175C110.772 134.258 106.207 133.067 100.78 131.6C97.4067 130.72 94.6017 129.565 92.3651 128.135C90.1284 126.705 88.3501 125.11 87.0301 123.35C85.7101 121.59 84.7751 119.72 84.2251 117.74C83.6751 115.76 83.4001 113.743 83.4001 111.69C83.4001 107.73 84.2251 104.302 85.8751 101.405C87.5251 98.5082 89.7067 96.1065 92.4201 94.1998C95.1334 92.2932 98.2134 90.8815 101.66 89.9648C105.107 89.0482 108.59 88.5898 112.11 88.5898C116.217 88.5898 120.085 89.1215 123.715 90.1849C127.345 91.2482 130.535 92.8432 133.285 94.9698C136.035 97.0965 138.217 99.7182 139.83 102.835C141.443 105.952 142.25 109.563 142.25 113.67H128.5C128.133 108.61 126.41 105.035 123.33 102.945C120.25 100.855 116.327 99.8098 111.56 99.8098C109.947 99.8098 108.297 99.9748 106.61 100.305C104.923 100.635 103.383 101.185 101.99 101.955C100.597 102.725 99.4417 103.77 98.5251 105.09C97.6084 106.41 97.1501 108.06 97.1501 110.04C97.1501 112.827 98.0117 115.008 99.7351 116.585C101.458 118.162 103.713 119.353 106.5 120.16C106.793 120.233 107.948 120.545 109.965 121.095C111.982 121.645 114.237 122.25 116.73 122.91C119.223 123.57 121.662 124.212 124.045 124.835C126.428 125.458 128.133 125.917 129.16 126.21C131.727 127.017 133.963 128.117 135.87 129.51C137.777 130.903 139.372 132.498 140.655 134.295C141.938 136.092 142.892 138.017 143.515 140.07C144.138 142.123 144.45 144.177 144.45 146.23C144.45 150.63 143.552 154.388 141.755 157.505C139.958 160.622 137.593 163.17 134.66 165.15C131.727 167.13 128.39 168.578 124.65 169.495C120.91 170.411 117.097 170.87 113.21 170.87C108.737 170.87 104.52 170.32 100.56 169.22C96.6001 168.12 93.1534 166.433 90.2201 164.16C87.2867 161.887 84.9401 158.972 83.1801 155.415C81.4201 151.858 80.5034 147.66 80.4301 142.82H94.1801ZM174.15 90.4598H188.78L219.03 169H204.29L196.92 148.21H165.57L158.2 169H144.01L174.15 90.4598ZM169.31 137.76H193.29L181.52 103.99H181.19L169.31 137.76ZM223.21 90.4598H236.96V126.21L271.94 90.4598H288.88L257.53 121.81L291.08 169H273.92L248.18 131.49L236.96 142.6V169H223.21V90.4598ZM316.27 90.4598H330.9L361.15 169H346.41L339.04 148.21H307.69L300.32 169H286.13L316.27 90.4598ZM311.43 137.76H335.41L323.64 103.99H323.31L311.43 137.76Z" fill="black"/>
</svg>
