<svg width="266" height="124" viewBox="0 0 266 124" fill="none" xmlns="http://www.w3.org/2000/svg">
<path d="M114.211 62.0003C96.3543 95.3176 58.7074 122.327 30.1259 122.327C1.54432 122.327 -7.15082 95.3176 10.7071 62.0003C28.5639 28.683 66.2097 1.67383 94.7924 1.67383C123.374 1.67383 132.068 28.683 114.211 62.0003Z" fill="#00E2FF" stroke="black" stroke-width="2"/>
<path d="M178.444 62.0003C160.587 95.3176 122.94 122.327 94.3587 122.327C65.7771 122.327 57.082 95.3176 74.9399 62.0003C92.7967 28.683 130.442 1.67383 159.025 1.67383C187.607 1.67383 196.301 28.683 178.444 62.0003Z" fill="#00E2FF" stroke="black" stroke-width="2"/>
<path d="M241.864 62.0003C224.007 95.3176 186.359 122.327 157.778 122.327C129.197 122.327 120.501 95.3176 138.36 62.0003C156.217 28.683 193.862 1.67383 222.444 1.67383C251.026 1.67383 259.72 28.683 241.864 62.0003Z" fill="#00E2FF" stroke="black" stroke-width="2"/>
<path d="M305.283 62.0003C287.426 95.3176 249.779 122.327 221.198 122.327C192.616 122.327 183.921 95.3176 201.779 62.0003C219.636 28.683 257.282 1.67383 285.864 1.67383C314.446 1.67383 323.14 28.683 305.283 62.0003Z" fill="#00E2FF" stroke="black" stroke-width="2"/>
</svg>
