<svg width="94" height="22" viewBox="0 0 94 22" fill="none" xmlns="http://www.w3.org/2000/svg">
<path d="M8.47596 1.00823H12.2L19.9 21.0002H16.148L14.272 15.7082H6.29195L4.41596 21.0002H0.803955L8.47596 1.00823ZM7.24396 13.0482H13.348L10.352 4.45223H10.268L7.24396 13.0482ZM24.464 9.38023H30.176C31.016 9.38023 31.716 9.14223 32.276 8.66623C32.836 8.19023 33.116 7.50423 33.116 6.60823C33.116 5.60023 32.864 4.89089 32.36 4.48023C31.856 4.06956 31.128 3.86423 30.176 3.86423H24.464V9.38023ZM20.964 1.00823H30.68C32.472 1.00823 33.9093 1.41889 34.992 2.24023C36.0746 3.06156 36.616 4.30289 36.616 5.96423C36.616 6.97223 36.3686 7.83556 35.874 8.55423C35.3793 9.27289 34.6746 9.82823 33.76 10.2202V10.2762C34.992 10.5376 35.9253 11.1209 36.56 12.0262C37.1946 12.9316 37.512 14.0656 37.512 15.4282C37.512 16.2122 37.372 16.9449 37.092 17.6262C36.812 18.3076 36.3733 18.8956 35.776 19.3902C35.1786 19.8849 34.4133 20.2769 33.48 20.5662C32.5466 20.8556 31.436 21.0002 30.148 21.0002H20.964V1.00823ZM24.464 18.1442H30.652C31.716 18.1442 32.542 17.8689 33.13 17.3182C33.718 16.7676 34.012 15.9882 34.012 14.9802C34.012 13.9909 33.718 13.2302 33.13 12.6982C32.542 12.1662 31.716 11.9002 30.652 11.9002H24.464V18.1442ZM48.348 3.38823C47.284 3.38823 46.3646 3.60289 45.59 4.03223C44.8153 4.46156 44.1853 5.03556 43.7 5.75423C43.2146 6.47289 42.8553 7.28956 42.622 8.20423C42.3886 9.11889 42.272 10.0522 42.272 11.0042C42.272 11.9562 42.3886 12.8896 42.622 13.8042C42.8553 14.7189 43.2146 15.5356 43.7 16.2542C44.1853 16.9729 44.8153 17.5469 45.59 17.9762C46.3646 18.4056 47.284 18.6202 48.348 18.6202C49.412 18.6202 50.3313 18.4056 51.106 17.9762C51.8806 17.5469 52.5106 16.9729 52.996 16.2542C53.4813 15.5356 53.8406 14.7189 54.074 13.8042C54.3073 12.8896 54.424 11.9562 54.424 11.0042C54.424 10.0522 54.3073 9.11889 54.074 8.20423C53.8406 7.28956 53.4813 6.47289 52.996 5.75423C52.5106 5.03556 51.8806 4.46156 51.106 4.03223C50.3313 3.60289 49.412 3.38823 48.348 3.38823ZM48.348 0.532227C49.8413 0.532227 51.1806 0.812227 52.366 1.37223C53.5513 1.93223 54.5546 2.68823 55.376 3.64023C56.1973 4.59223 56.8273 5.70289 57.266 6.97223C57.7046 8.24156 57.924 9.58556 57.924 11.0042C57.924 12.4416 57.7046 13.7949 57.266 15.0642C56.8273 16.3336 56.1973 17.4442 55.376 18.3962C54.5546 19.3482 53.5513 20.0996 52.366 20.6502C51.1806 21.2009 49.8413 21.4762 48.348 21.4762C46.8546 21.4762 45.5153 21.2009 44.33 20.6502C43.1446 20.0996 42.1413 19.3482 41.32 18.3962C40.4986 17.4442 39.8686 16.3336 39.43 15.0642C38.9913 13.7949 38.772 12.4416 38.772 11.0042C38.772 9.58556 38.9913 8.24156 39.43 6.97223C39.8686 5.70289 40.4986 4.59223 41.32 3.64023C42.1413 2.68823 43.1446 1.93223 44.33 1.37223C45.5153 0.812227 46.8546 0.532227 48.348 0.532227ZM60.052 1.00823H63.552V12.6562C63.552 13.3282 63.5846 14.0096 63.65 14.7002C63.7153 15.3909 63.902 16.0116 64.21 16.5622C64.518 17.1129 64.9846 17.5656 65.61 17.9202C66.2353 18.2749 67.1173 18.4522 68.256 18.4522C69.3946 18.4522 70.2766 18.2749 70.902 17.9202C71.5273 17.5656 71.9939 17.1129 72.302 16.5622C72.61 16.0116 72.7966 15.3909 72.862 14.7002C72.9273 14.0096 72.96 13.3282 72.96 12.6562V1.00823H76.46V13.8042C76.46 15.0922 76.264 16.2122 75.872 17.1642C75.4799 18.1162 74.9246 18.9142 74.2059 19.5582C73.4873 20.2022 72.624 20.6829 71.616 21.0002C70.6079 21.3176 69.488 21.4762 68.256 21.4762C67.0239 21.4762 65.904 21.3176 64.896 21.0002C63.888 20.6829 63.0246 20.2022 62.306 19.5582C61.5873 18.9142 61.032 18.1162 60.64 17.1642C60.248 16.2122 60.052 15.0922 60.052 13.8042V1.00823ZM77.748 1.00823H93.932V4.03223H87.576V21.0002H84.076V4.03223H77.748V1.00823Z" fill="black"/>
</svg>
