<svg width="43" height="188" viewBox="0 0 43 188" fill="none" xmlns="http://www.w3.org/2000/svg">
<rect x="1" y="1" width="41" height="186" fill="white" stroke="black" stroke-width="2"/>
<path d="M25.0121 19.4341C21.0341 19.4341 17.7361 21.9501 16.2061 23.3441C16.1721 22.9021 16.1381 22.3581 16.1381 21.7461C16.1381 19.8421 16.3421 17.1901 16.8861 14.5041C20.1501 14.3001 24.5361 13.3821 24.5361 10.7641C24.5361 9.30206 22.4961 9.54007 21.0681 9.40407C20.2521 9.33607 19.4021 8.69007 18.8581 8.21407C19.0281 7.80607 19.1981 7.39807 19.1981 6.99007C19.1981 5.73207 17.4981 5.01807 16.1721 5.01807C15.4241 5.01807 14.5741 5.15407 13.8261 5.49407C13.4181 5.66407 13.2481 5.80007 13.2481 5.93607C13.2481 6.03807 13.3841 6.10607 13.6901 6.17407C14.5401 6.37807 15.4241 6.95607 15.4241 7.84007C15.4241 8.11207 15.1181 9.64207 14.6761 11.6821H14.0981C12.0581 11.6821 9.95005 10.9341 8.45405 9.81207C8.21605 9.64207 8.04605 9.54007 7.91005 9.54007C7.77406 9.54007 7.70605 9.67607 7.70605 9.91407C7.70605 11.0701 9.06605 13.4501 11.8881 14.1981C12.5341 14.3681 13.2821 14.4701 14.1321 14.5381C13.4861 17.8021 12.8741 21.4741 12.8741 23.6841C12.8741 24.4321 12.9081 25.0101 13.0781 25.3501C13.8601 27.0161 14.6081 27.8661 15.3901 27.8661C15.6281 27.8661 15.9001 27.7981 16.1721 27.6961C17.1921 27.3561 19.0621 22.0521 23.9581 22.0521C26.2361 22.0521 28.7861 23.2081 28.7861 26.0641C28.7861 28.4101 26.4741 32.6601 19.0281 34.1221C18.5181 34.2241 18.2801 34.3941 18.2801 34.5301C18.2801 34.6661 18.4841 34.7341 18.8581 34.7341C19.8101 34.7341 32.5261 33.8501 32.5261 25.9621C32.5261 22.3241 29.5001 19.4341 25.0121 19.4341ZM18.4501 9.06407L18.5521 8.79207C18.7561 8.99607 18.9941 9.20007 19.2321 9.47207C19.6401 9.88007 19.8101 10.1861 19.8101 10.4241C19.8101 10.8661 18.8581 11.1721 17.6341 11.4101C17.8721 10.5941 18.1441 9.77807 18.4501 9.06407ZM26.2701 51.8641C25.3861 51.8641 24.4001 52.0341 23.4141 52.3061C23.5501 52.0341 23.6181 51.6601 23.6181 51.2861C23.6181 50.3001 22.9381 49.1781 20.2861 48.5321C20.1501 48.4981 19.9121 48.4641 19.7761 48.4641C19.5041 48.4641 19.3681 48.5321 19.3681 48.6681C19.3681 48.7361 19.4701 48.8721 19.6401 49.0081C19.9461 49.2801 20.5241 49.9941 20.5241 50.4361C20.5241 50.6741 20.2861 50.8441 19.8441 50.8441C18.6541 50.8441 17.1581 49.9601 15.5941 49.9601C13.8261 49.9601 12.4661 50.8781 12.4661 52.6121C12.4661 54.2101 13.3841 55.4341 14.4721 56.8621C13.9281 57.2021 13.5541 57.5081 13.3501 57.6441C12.7721 58.0521 12.1941 58.2561 11.7181 58.2561C10.8341 58.2561 10.5281 57.6101 10.2221 57.6101C10.1201 57.6101 10.0521 57.7461 10.0521 57.9841C10.0521 59.6501 11.1401 61.0101 12.6361 61.0101C13.4181 61.0101 14.2681 60.7041 14.8801 59.9901C15.2201 59.5821 15.5941 59.2081 15.9341 58.8681C16.2061 59.3101 16.4781 59.7521 16.7161 60.2621C18.1781 63.3221 19.1981 66.5861 19.4701 68.3201C19.6741 69.6121 20.4561 70.4961 21.1701 70.4961C21.5101 70.4961 22.5641 70.1901 22.5641 68.5241C22.5641 67.9461 22.4281 67.2321 22.0881 66.3481C21.3061 64.2741 19.2661 60.4321 17.5321 57.4741C21.6121 54.3121 25.1481 54.2781 25.7601 54.2781C27.9021 54.2781 29.0581 55.6381 29.0581 56.9301C29.0581 58.0861 27.9021 59.5481 25.5561 59.5481C24.2301 59.5481 22.2921 58.8681 20.7961 57.6101C20.4561 57.3041 20.2181 57.1681 20.0821 57.1681C19.9801 57.1681 19.9461 57.2361 19.9461 57.3381C19.9461 57.8821 21.8161 60.7041 24.4681 61.4521C25.3521 61.6901 26.1341 61.8261 26.8481 61.8261C30.5881 61.8261 32.1181 58.8341 32.1181 56.9981C32.1181 54.1081 29.6361 51.8641 26.2701 51.8641ZM15.6621 54.4481C15.0501 53.5641 14.8121 52.9181 14.8121 52.4421C14.8121 51.7961 15.2881 51.4221 15.8321 51.4221C17.0561 51.4221 19.0961 52.8161 20.7961 53.2921C19.1981 53.9721 17.6681 54.8221 16.4101 55.6041C16.1381 55.1621 15.9001 54.7541 15.6621 54.4481ZM14.4041 90.4481C14.2681 90.4481 14.1661 90.6181 13.8601 91.1961C13.3841 92.1141 12.1941 94.9361 11.3781 97.3841C11.1401 98.1321 10.9701 98.5401 10.8001 98.5401C10.3921 98.5401 10.2561 96.6361 10.2561 95.8541C10.2561 94.3581 10.4261 92.8621 10.9361 91.1621C11.4801 89.3261 14.0641 85.0761 14.0641 83.1041C14.0641 81.2001 12.7721 79.4321 10.7661 78.5821C10.0181 78.2761 9.67805 78.1401 9.50805 78.1401C9.40605 78.1401 9.37206 78.1741 9.37206 78.2421C9.37206 78.3101 9.47405 78.5141 9.67805 78.8201C10.1201 79.4661 10.7661 80.5881 10.7661 81.7441C10.7661 84.2261 7.84205 91.0941 7.84205 96.2621C7.84205 98.8801 9.20205 105.782 11.8201 105.782C12.3981 105.782 13.4181 105.306 13.4181 104.082C13.4181 102.722 12.8741 102.042 12.8741 100.24C12.8741 97.1121 13.7921 93.4401 14.2341 91.6721C14.3701 91.0941 14.4721 90.7201 14.4721 90.6181C14.4721 90.5501 14.4721 90.4481 14.4041 90.4481ZM21.6461 81.8461C22.5301 82.5261 23.6181 82.7641 24.7401 82.7641C26.6441 82.7641 28.5481 82.0841 29.2281 81.8121C29.7381 81.6081 30.4521 81.2341 30.4521 80.4861C30.4521 79.5001 29.7381 78.9221 28.7861 78.9221C28.4801 78.9221 28.1401 78.9901 27.7661 79.1261C26.4401 79.6361 24.7061 80.1461 23.4141 80.1461C22.8701 80.1461 21.3061 79.9761 20.3881 79.3641C20.1841 79.2281 20.0481 79.1941 19.9801 79.1941C19.8781 79.1941 19.8441 79.2281 19.8441 79.3301C19.8441 79.4321 19.8781 79.5681 19.9461 79.7381C20.2861 80.5881 20.5921 81.0641 21.6461 81.8461ZM34.3281 79.1601C32.3901 79.1601 30.7581 80.7241 30.7581 82.7301C30.7581 84.7361 32.3901 86.3001 34.3281 86.3001C36.3341 86.3001 37.9321 84.7021 37.9321 82.7301C37.9321 80.7241 36.3001 79.1601 34.3281 79.1601ZM34.3281 84.7021C33.2741 84.7021 32.3901 83.8181 32.3901 82.7301C32.3901 81.6421 33.2401 80.7581 34.3281 80.7581C35.3821 80.7581 36.3001 81.6421 36.3001 82.7301C36.3001 83.8181 35.4161 84.7021 34.3281 84.7021ZM28.8541 98.9481C28.6161 97.3501 28.2421 95.3101 28.1401 93.2021C28.1061 92.5901 28.0721 91.9781 28.0721 91.3321C30.6901 90.6181 33.0361 89.3941 33.0361 87.9661C33.0361 87.0481 32.3561 86.9121 31.5741 86.8101L30.8941 86.7081C29.9421 86.5721 29.0581 86.1301 28.4461 85.8921V85.7561C28.4461 85.6541 28.4461 85.5521 28.4121 85.4161C28.2761 84.5321 27.2221 83.4101 25.6581 83.4101C24.4341 83.4101 23.5501 83.7841 23.5501 84.0561C23.5501 84.4641 24.9101 84.4981 25.1821 85.9601L25.4201 89.0541C23.6861 89.3941 21.7141 89.6321 20.6601 89.6321C19.7081 89.6321 18.7561 89.0881 18.3481 89.0881C18.1781 89.0881 18.1101 89.1561 18.1101 89.2581C18.1101 89.6321 19.0961 91.2301 21.4421 91.8421C21.9861 91.9781 22.5981 92.0461 23.2441 92.0461C23.9581 92.0461 24.8081 91.9781 25.6581 91.8421C25.8281 94.1881 26.0321 96.7041 26.1681 98.3021C25.5561 98.2001 24.9441 98.1661 24.3321 98.1661C21.0341 98.1661 17.5661 99.4921 17.5661 102.144C17.5661 103.538 19.3001 105.68 23.0061 105.68C26.1001 105.68 28.3101 104.218 28.8881 102.144C29.4321 102.518 29.9421 102.96 30.4181 103.504C31.4041 104.626 32.4581 105.238 33.2741 105.238C33.9541 105.238 34.5661 104.728 34.5661 103.98C34.5661 102.484 32.2881 100.138 28.8541 98.9481ZM28.0041 88.1701C28.0041 87.7281 28.0041 87.3881 28.0381 87.2181C28.0721 86.8441 28.2421 86.6061 28.3441 86.3001C28.7521 86.6401 29.2621 87.1161 29.2621 87.4561C29.2621 87.7281 29.1261 87.9321 28.8201 88.1021C28.6161 88.2041 28.3441 88.3061 28.0041 88.4421V88.1701ZM22.4961 103.266C21.2041 103.266 20.0821 102.688 20.0821 101.94C20.0821 101.09 21.6121 100.342 23.3801 100.342C24.0941 100.342 25.1141 100.478 26.2021 100.818C25.9981 102.314 25.0801 103.266 22.4961 103.266ZM35.8581 130.936C35.7561 130.936 35.4841 131.344 35.1101 132.16C32.9681 136.716 29.1941 138.484 27.5281 138.484C26.6101 138.484 25.7261 137.974 25.7261 136.036C25.7261 134.574 26.3041 132.636 26.3041 130.698C26.3041 127.366 24.3661 125.632 22.2241 125.632C19.4701 125.632 16.4441 127.91 15.2541 128.93C15.4581 128.556 15.8661 127.944 16.8861 126.652C18.0081 125.19 19.4021 123.694 20.5921 122.3C22.1561 120.498 23.3801 118.832 23.3801 117.472C23.3801 115.874 20.9661 113.868 19.1301 113.868C18.9601 113.868 18.8921 113.936 18.8921 114.038C18.8921 114.106 18.9601 114.276 19.1301 114.446C19.6061 114.99 19.7761 115.602 19.7761 116.146C19.7761 116.928 19.4701 117.676 19.0961 118.288C18.0761 119.988 16.9201 121.824 15.7641 123.66C12.2621 129.236 8.69205 135.118 8.69205 139.164C8.69205 141.272 10.0181 141.748 10.7321 141.748C11.9901 141.748 12.1601 139.776 12.2961 138.11C12.3301 137.6 12.3641 137.158 12.4321 136.784C13.3161 131.344 19.0961 127.876 21.5441 127.876C22.5641 127.876 23.1081 128.59 23.1081 130.46C23.1081 132.602 22.4621 134.132 22.4621 136.41C22.4621 141.34 25.9641 141.374 27.1541 141.374C30.8941 141.374 34.3621 137.736 35.6541 132.398C35.8241 131.718 35.8921 131.276 35.8921 131.072C35.8921 130.97 35.8921 130.936 35.8581 130.936ZM21.0001 171.73C21.3741 171.73 21.6121 171.424 21.6461 171.05C22.2581 165.882 23.8561 155.274 23.8561 152.282C23.8561 150.378 22.8701 149.086 21.0001 149.086C19.0961 149.086 18.1441 150.378 18.1441 152.282C18.1441 155.274 19.7081 165.814 20.3201 171.05C20.3541 171.424 20.6261 171.73 21.0001 171.73ZM21.0001 179.074C22.5641 179.074 23.8561 177.782 23.8561 176.218C23.8561 174.62 22.5641 173.328 21.0001 173.328C19.4021 173.328 18.1441 174.62 18.1441 176.218C18.1441 177.782 19.4021 179.074 21.0001 179.074Z" fill="black"/>
</svg>
