<svg width="43" height="412" viewBox="0 0 43 412" fill="none" xmlns="http://www.w3.org/2000/svg">
<rect x="1" y="1" width="41" height="410" fill="white" stroke="black" stroke-width="2"/>
<path d="M14.6898 6.58188C12.2418 6.58188 9.18178 6.47988 7.34578 6.27588C7.27778 6.41188 7.24378 7.26188 7.24378 8.07788C7.24378 8.89388 7.27778 9.70988 7.34578 9.84588C9.38578 9.67588 11.4258 9.57388 13.5338 9.57388H19.7558C19.5518 10.7979 19.3138 12.1579 19.0418 13.3139H13.9078C12.1738 13.3139 10.0318 13.2119 8.77378 13.0759C8.67178 13.0759 8.50178 13.0759 8.50178 13.3139C8.67178 14.8099 8.77378 17.3259 8.77378 19.3999V25.5199C8.77378 28.9199 8.63778 33.1699 8.43378 35.7199C8.60378 35.8219 9.45378 35.8899 10.2358 35.8899C11.0518 35.8899 11.7998 35.8219 11.8338 35.7199C11.7998 35.5159 11.7658 35.1759 11.7658 34.8359V33.9519H32.0638V34.8359C32.0638 35.1759 32.0298 35.5159 31.9958 35.7199C32.0298 35.8219 32.8458 35.8899 33.6958 35.8899C34.5118 35.8899 35.3958 35.8219 35.5658 35.7199C35.3618 33.1699 35.2258 28.9199 35.2258 25.5199V19.3999C35.2258 17.3259 35.3278 14.8099 35.4978 13.3139C35.4978 13.2119 35.4978 13.0419 35.2258 13.0419C33.6278 13.2119 30.9418 13.3139 28.7318 13.3139H22.2378C22.5778 12.1579 22.9518 10.8319 23.3598 9.57388H30.0918C32.3698 9.57388 35.1238 9.67588 36.7898 9.84588C36.8578 9.70988 36.8918 8.89388 36.8918 8.07788C36.8918 7.26188 36.8578 6.41188 36.7898 6.27588C34.3418 6.47988 31.8938 6.58188 29.4458 6.58188H14.6898ZM15.9478 31.0279H11.7658V16.2039H15.9478V31.0279ZM18.7018 19.3999V16.2039H24.8898V19.3999H18.7018ZM27.7118 16.2039H32.0638V31.0279H27.7118V16.2039ZM18.7018 25.1459V21.9159H24.8898V25.1459H18.7018ZM24.8898 27.6619V31.0279H18.7018V27.6619H24.8898ZM9.96378 65.1919C9.96378 67.4019 9.86178 70.0879 9.69178 71.6859C9.82778 71.7879 10.6778 71.8559 11.4938 71.8559C12.3098 71.8559 13.0918 71.7879 13.1258 71.6859C13.0918 71.4139 13.0578 70.9379 13.0578 70.4959V69.3059H30.8398V70.4279C30.8398 70.8019 30.8058 71.2779 30.7718 71.5499C30.8058 71.6519 31.6558 71.7199 32.5058 71.7199C33.3898 71.7199 34.2738 71.6519 34.4438 71.5499C34.2398 68.9999 34.1038 64.7499 34.1038 61.3499V53.4959C34.1038 50.8439 34.2398 47.6139 34.4438 45.6759C34.4438 45.5739 34.4438 45.4039 34.1038 45.4039C32.5738 45.5739 29.9558 45.6759 27.8818 45.6759H21.6598C22.3738 44.2479 23.0878 42.5819 23.7678 40.9839L19.7898 40.3379C19.4838 41.9019 18.8378 43.9759 18.1578 45.6759H14.0438C12.6838 45.6759 10.9838 45.6079 9.96378 45.5059C9.86178 45.5059 9.69178 45.5059 9.69178 45.6759C9.86178 47.2739 9.96378 49.9599 9.96378 52.1699V65.1919ZM13.0578 55.8079V48.8379H30.8398V55.8079H13.0578ZM30.8398 58.9359V66.1439H13.0578V58.9359H30.8398ZM30.9078 82.5599C29.9558 82.3219 27.4058 81.6079 25.3318 79.9759C25.3658 79.7379 25.3998 79.5339 25.3998 79.3299C25.3998 76.6099 21.2518 76.4059 20.7758 76.4059C20.0618 76.4059 19.7218 76.6099 19.7218 76.9499C19.7218 77.1879 19.8918 77.4939 20.2658 77.7999C21.3538 78.6839 22.2378 80.5199 22.4078 82.3559C22.4418 82.6959 22.4758 83.0699 22.4758 83.4779C18.0558 84.1579 12.6158 85.5179 10.9498 85.5179C9.72578 85.5179 8.50178 84.9399 7.48178 84.9399C7.27778 84.9399 7.17578 85.0079 7.17578 85.1439C7.17578 85.3139 7.34578 85.5859 7.68578 85.9939C9.11378 87.7279 10.2698 89.0539 12.3098 89.0539C14.0098 89.0539 14.2478 88.6119 15.8798 87.9659C18.2258 87.0479 20.4018 86.4359 22.5438 86.0959C22.5438 87.1499 22.5098 88.1699 22.4758 89.0199C22.1358 88.8499 21.7618 88.7819 21.3538 88.7819C19.1438 88.7819 16.7978 91.0259 16.6618 93.9159V94.1199C16.6618 96.4319 18.3958 99.9679 20.6738 99.9679C21.3878 99.9679 22.1698 99.6619 22.7138 99.1519C22.5778 100.784 21.7958 104.082 17.6478 106.836C17.1718 107.142 16.9338 107.38 16.9338 107.482C16.9338 107.516 16.9678 107.55 17.0358 107.55C17.2058 107.55 17.4778 107.448 17.8858 107.278C19.3478 106.7 25.8758 104.15 25.8758 97.0439C25.8758 95.4459 25.5358 93.3039 24.7878 91.6039V90.8559C24.7878 89.2919 24.7538 87.1839 24.7538 85.8579C25.5358 85.7899 26.2838 85.7559 27.0658 85.7559C28.8678 85.7559 30.7038 85.9259 32.6078 86.1979C33.3898 86.2999 34.0018 86.4359 34.6138 86.4359C35.4638 86.4359 36.0758 86.2319 36.0758 85.0419C36.0758 83.1379 33.0158 83.0699 30.9078 82.5599ZM27.3038 83.0699H26.5218C26.0118 83.0699 25.3998 83.1039 24.7878 83.1719C24.8218 82.1859 24.8898 81.5399 25.0598 80.9279C25.5698 81.4039 26.1478 81.8799 26.6578 82.2539C27.1338 82.5939 27.6098 82.7979 27.6098 83.0019C27.6098 83.0699 27.5078 83.0699 27.3038 83.0699ZM21.3878 97.2479C19.6878 97.2479 18.5658 94.8679 18.5658 93.0319V92.8279C18.6678 91.6039 19.9938 90.6519 20.8438 90.6519C20.9458 90.6519 21.0138 90.6519 21.0818 90.6859C21.6598 90.8899 22.3738 93.5079 22.3738 95.3779C22.3738 96.9759 21.9318 97.2479 21.3878 97.2479ZM32.1998 112.95C31.6558 112.95 31.1118 113.018 30.6018 113.12C30.1258 113.222 29.8538 113.324 29.8538 113.426C29.8538 113.494 29.9218 113.562 30.1258 113.63C31.8938 114.174 32.7438 114.548 34.1378 115.772C34.7158 116.282 35.1578 116.622 35.7018 116.622C36.3478 116.622 36.9598 116.146 36.9598 115.5C36.9598 113.936 34.5118 112.95 32.1998 112.95ZM32.1658 122.436C32.1658 121.552 31.5878 121.212 29.8198 121.212C28.6638 121.212 28.1538 121.314 27.4398 121.314C26.7938 121.314 26.0118 121.246 24.4478 120.94L24.0738 120.362C25.2298 119.92 25.8078 119.308 25.8078 118.628C25.8078 117.948 25.2638 117.37 24.3118 117.37C23.7678 117.37 23.1218 117.54 22.4078 117.778C22.1358 117.336 21.8978 116.928 21.6598 116.52L20.9118 115.194C20.1978 113.902 19.5178 112.984 17.9878 112.984C16.8998 112.984 15.6078 113.426 14.9958 113.902C14.6898 114.14 14.5538 114.31 14.5538 114.412C14.5538 114.582 14.8598 114.616 15.2338 114.65C15.9478 114.684 16.9678 114.888 18.5658 116.214C19.1438 116.69 19.7898 117.472 20.4698 118.424C19.8918 118.628 19.3138 118.798 18.8378 118.866C18.6338 118.9 18.2598 118.9 18.2258 118.9C16.9678 118.9 16.4238 118.594 15.0978 117.778C14.6898 117.506 14.4178 117.37 14.2818 117.37C14.1798 117.37 14.1458 117.438 14.1458 117.54C14.1458 117.676 14.2138 117.948 14.3838 118.288C15.3358 120.226 16.6958 121.518 19.1438 121.518C20.1298 121.518 21.1158 121.314 22.1358 121.008C22.7478 122.062 23.3938 123.184 23.9718 124.272C22.1018 124.714 19.8918 125.156 18.5318 125.156C16.8318 125.156 15.4038 124.442 14.4518 123.864C14.0098 123.592 13.7038 123.354 13.4998 123.218C13.3638 123.116 13.2278 123.048 13.1598 123.048C13.0918 123.048 13.0578 123.116 13.0578 123.218C13.0578 124.408 15.6078 128.046 20.3338 128.046C21.8638 128.046 23.5978 127.672 25.4678 127.128C26.4538 129.032 27.1678 130.528 27.3378 130.902C27.4738 131.174 27.5078 131.344 27.5078 131.48C27.5078 131.65 27.3378 131.752 27.0318 131.752C26.0798 131.752 23.7338 131.004 21.0478 131.004C15.4038 131.004 12.5818 133.486 12.5818 136.444C12.5818 141.306 19.9938 142.292 23.3258 142.292C25.6718 142.292 27.2698 141.714 27.2698 140.592C27.2698 140.014 26.9638 138.484 23.0538 138.484C22.2038 138.484 21.6938 138.552 21.2518 138.552C17.6818 138.552 15.5398 137.566 15.5398 135.798C15.5398 133.282 18.7698 132.704 20.5378 132.704C23.1898 132.704 24.4138 133.418 25.5698 134.2C27.4058 135.424 28.4258 135.934 29.4798 135.934C30.2958 135.934 31.4178 134.472 31.4178 132.738C31.4178 131.378 29.9898 128.998 28.1198 126.244C31.2138 125.054 32.1658 123.49 32.1658 122.436ZM28.4258 115.67C28.0518 115.67 27.7118 115.67 27.4058 115.738C27.0998 115.806 26.9638 115.874 26.9638 115.942C26.9638 116.01 27.0658 116.078 27.2358 116.146C28.9018 116.826 29.7518 117.506 30.7378 118.764C31.2818 119.478 31.7578 119.988 32.5058 119.988C33.1858 119.988 33.8318 119.546 33.8318 118.696C33.8318 116.826 30.9078 115.67 28.4258 115.67ZM25.3658 122.232C25.8758 122.334 26.4198 122.402 26.9978 122.47C27.5418 122.538 27.8138 122.674 27.8138 122.844C27.8138 123.014 27.6098 123.218 27.1678 123.388C26.9978 123.456 26.7258 123.524 26.3178 123.66L25.3658 122.232ZM24.8218 161.734C22.8158 161.734 21.1838 162.278 19.5518 163.366C21.2178 161.088 23.9038 157.688 25.8078 155.512C26.4198 154.832 26.6238 154.254 26.6238 153.71C26.6238 152.01 23.9718 150.854 22.5438 150.854C21.8638 150.854 21.2518 151.058 20.7758 151.466C19.2798 152.826 17.5798 153.574 16.7978 153.574C16.1858 153.574 15.5738 153.37 15.3018 153.132C14.9618 152.826 14.7578 152.656 14.6218 152.656C14.3838 152.656 14.3838 153.914 14.3838 153.948C14.3838 155.648 15.7098 157.484 17.0698 157.484C18.6338 157.484 20.4018 155.274 21.1838 154.118C21.5238 153.608 21.8638 153.404 22.1018 153.404C22.3738 153.404 22.5438 153.642 22.5438 153.982C22.5438 154.186 22.4758 154.39 22.3058 154.696C21.8638 155.478 18.3278 161.292 15.8798 164.624C13.6698 167.888 11.5958 168.398 11.5958 170.506C11.5958 171.628 12.3098 172.274 13.1938 172.274C13.8398 172.274 14.4858 171.934 14.8598 171.288C18.8378 164.284 23.1218 164.25 23.9718 164.25C26.6238 164.25 28.7318 165.916 28.7318 168.602C28.7318 171.016 27.2018 173.056 25.1958 174.144C24.1758 172.104 22.4758 170.234 20.1638 170.234C17.9198 170.234 16.2878 172.036 16.2878 173.702C16.2878 175.742 18.7018 177.204 22.2378 177.204C27.3378 177.204 32.5398 174.518 32.5398 169.18C32.5398 165.542 30.3978 161.734 24.8218 161.734ZM21.8978 175.028C20.9458 175.028 18.9058 174.688 18.9058 173.634C18.9058 173.328 19.2118 172.716 19.9258 172.716C21.0478 172.716 22.1018 173.906 22.6458 174.994C22.4078 175.028 22.1358 175.028 21.8978 175.028Z" fill="black"/>
<path d="M22.4079 275.18C16.3899 275.18 7.34594 279.362 7.34594 289.086C7.34594 293.438 10.5079 297.756 12.3779 297.756C16.1859 297.756 23.0539 286.196 23.0539 281.3C23.0539 279.328 22.3059 278.342 21.4899 277.356C21.8299 277.322 22.1699 277.322 22.5099 277.322C28.5959 277.322 32.6079 281.538 32.6079 286.944C32.6079 293.54 27.3039 298.164 20.4699 299.864C19.8579 300.034 19.5859 300.136 19.5859 300.204C19.5859 300.306 19.8579 300.34 20.3339 300.34C21.2179 300.34 24.9239 300.068 28.8339 298.266C32.7099 296.498 36.4839 293.302 36.4839 287.59C36.4839 279.192 29.8199 275.18 22.4079 275.18ZM20.7759 279.26C20.7759 284.122 15.5399 293.404 13.0579 293.404C12.0039 293.404 10.4399 291.024 10.4399 287.896C10.4399 282.184 14.9619 278.308 20.3679 277.492C20.5719 277.9 20.7759 278.41 20.7759 279.26ZM30.7379 336.34C32.5399 336.34 34.7159 336.442 36.0079 336.578C36.0759 336.476 36.1099 335.626 36.1099 334.776C36.1099 333.926 36.0759 333.076 36.0079 332.906C32.6079 333.11 29.2079 333.246 25.8079 333.246H14.9619V318.796H20.4359V324.236C20.4359 326.038 20.3339 328.316 20.1979 329.642C20.3339 329.744 21.1499 329.778 21.9659 329.778C22.7819 329.778 23.5639 329.744 23.5639 329.642C23.5639 329.472 23.5299 329.166 23.5299 328.86V328.078H29.0039V328.792C29.0039 329.03 28.9699 329.336 28.9699 329.506C29.0039 329.608 29.7859 329.642 30.6019 329.642C31.4179 329.642 32.2679 329.608 32.3699 329.506C32.2339 328.18 32.1319 325.97 32.1319 324.168V318.796H34.6479C35.5319 318.796 36.5519 318.83 37.1639 318.898C37.2319 318.83 37.2659 318.048 37.2659 317.266C37.2659 316.484 37.2319 315.702 37.1639 315.668C36.3479 315.736 35.5319 315.77 34.6479 315.77H32.1319V311.146C32.1319 309.786 32.5399 309.106 32.9479 308.426C32.9479 308.052 31.1119 307.916 29.7519 307.916C29.4119 307.916 29.0719 307.95 28.8339 307.95C28.9359 309.038 29.0039 310.602 29.0039 311.928V315.77H23.5299V310.772C23.5299 309.412 23.9379 308.732 24.3459 308.052C24.3459 307.678 22.5439 307.542 21.1839 307.542C20.8439 307.542 20.5039 307.576 20.2659 307.576C20.3679 308.698 20.4359 310.364 20.4359 311.724V315.77H14.9619V311.486C14.9619 310.126 15.3699 309.446 15.7779 308.766C15.7779 308.392 13.9419 308.256 12.5819 308.256C12.2079 308.256 11.8679 308.29 11.6299 308.29C11.7319 309.344 11.7999 310.874 11.7999 312.098V315.77H9.35194C8.50194 315.77 7.51594 315.736 6.93794 315.668C6.86994 315.702 6.83594 316.484 6.83594 317.266C6.83594 318.048 6.86994 318.83 6.93794 318.898C7.71994 318.83 8.50194 318.796 9.35194 318.796H11.7999V328.758C11.7999 332.09 11.6639 336.204 11.4599 338.686C11.6299 338.788 12.5139 338.856 13.3639 338.856C14.1799 338.856 14.9959 338.788 15.0299 338.686C14.9959 338.414 14.9619 337.938 14.9619 337.53V336.34H30.7379ZM23.5299 318.796H29.0039V325.12H23.5299V318.796ZM16.2879 344.596C14.3499 344.596 11.9699 344.494 10.5419 344.358C10.4399 344.358 10.2359 344.358 10.2359 344.596C10.4399 346.33 10.5419 349.22 10.5419 351.532V356.326C10.5419 357.142 10.5079 357.924 10.3719 358.468C10.3719 358.536 10.3719 358.604 10.5419 358.604C11.2899 358.536 12.5139 358.468 13.5339 358.468H16.5599C14.1119 360.882 10.4059 362.922 6.83594 363.976C7.54994 364.622 8.43394 365.778 8.90994 366.594C11.1879 365.744 13.4659 364.554 15.5399 363.092V364.86C15.5399 367.24 14.8939 370.334 9.24994 372.34C9.92994 372.952 10.9839 374.108 11.3239 374.924C17.8859 372.34 18.7019 368.192 18.7019 364.962V362.786H15.9479C17.6479 361.528 19.1779 360.032 20.3679 358.468H23.9379C25.0939 360.066 26.6239 361.562 28.2899 362.82H25.8419V368.736C25.8419 370.742 25.7399 373.156 25.6039 374.618C25.7399 374.72 26.5899 374.788 27.4399 374.788C28.2899 374.788 29.1739 374.72 29.2759 374.618C29.1399 373.224 29.0379 370.878 29.0379 369.008V363.364C30.9759 364.656 33.0839 365.744 35.2939 366.458C35.7699 365.642 36.6879 364.418 37.4019 363.772C33.6279 362.786 29.9559 360.848 27.5419 358.468H30.5679C31.6219 358.468 32.8459 358.536 33.5939 358.604C33.6959 358.604 33.8999 358.604 33.8999 358.468C33.6959 356.734 33.5939 353.844 33.5939 351.532V348.064C33.5939 346.908 33.6619 345.446 33.7639 344.596C33.7639 344.494 33.7639 344.358 33.5939 344.358C32.1659 344.494 29.7859 344.596 27.8479 344.596H16.2879ZM20.4019 347.18V350.274H13.6019V347.18H20.4019ZM23.5299 350.274V347.18H30.3979V350.274H23.5299ZM20.4019 352.722V355.884H13.6019V352.722H20.4019ZM23.5299 355.884V352.722H30.3979V355.884H23.5299ZM20.2659 392.7C26.4879 398.616 32.0979 402.356 34.6819 402.356C36.0759 402.356 36.8239 401.54 36.8239 400.724C36.8239 399.806 36.0079 398.82 34.7499 398.412C28.9699 396.406 23.8019 392.156 20.9799 389.81C20.1979 389.164 19.4499 388.824 18.7019 388.824C17.0019 388.824 14.1459 391.544 11.0519 394.366C10.4399 394.876 9.69194 395.182 8.90994 395.182C8.36594 395.182 7.92394 394.978 7.68594 394.978C7.44794 394.978 7.34594 395.148 7.34594 395.352C7.34594 396.678 9.38594 398.616 11.1879 398.616C12.4799 398.616 13.1259 397.698 14.1799 396.168C15.4379 394.366 17.3759 391.85 18.6339 391.85C19.1439 391.85 19.6879 392.156 20.2659 392.7Z" fill="black"/>
<path d="M31.5879 233.274C31.5879 235.722 31.4859 238.782 31.2819 240.618C31.4519 240.72 32.3359 240.788 33.2199 240.788C34.1379 240.788 35.0219 240.72 35.1919 240.618C34.9879 238.068 34.8519 233.818 34.8519 230.418V214.234C34.8519 212.874 35.2599 212.194 35.6679 211.514C35.6679 211.14 33.7979 211.004 32.3019 211.004C31.9279 211.004 31.5539 211.038 31.2819 211.038C31.4859 213.01 31.5879 216.07 31.5879 218.518V233.274ZM10.6779 222.768C10.6779 228.48 10.2019 234.226 6.35986 238.68C7.17586 239.19 8.39986 240.244 9.01186 240.958C13.3299 235.892 13.8399 229.262 13.8399 222.768V214.302C13.8399 212.942 14.2479 212.262 14.6559 211.582C14.6559 211.208 12.8199 211.072 11.4599 211.072C11.1199 211.072 10.7799 211.106 10.5419 211.106C10.6099 211.956 10.6779 213.146 10.6779 214.132V222.768ZM20.9799 231.37C20.9799 233.444 20.8779 236.062 20.7079 237.592C20.8439 237.694 21.6939 237.728 22.5779 237.728C23.4279 237.728 24.3119 237.694 24.4819 237.592C24.2779 235.042 24.1419 230.792 24.1419 227.392V215.73C24.1419 214.37 24.5499 213.69 24.9579 213.01C24.9579 212.636 23.1219 212.5 21.6939 212.5C21.3199 212.5 20.9799 212.534 20.7079 212.534C20.8779 214.2 20.9799 216.818 20.9799 218.892V231.37Z" fill="black"/>
<path d="M8.20409 190.776H38.3621V200.67H39.8921V189.246H8.20409V190.776Z" fill="black"/>
<path d="M2.97985 267.874H34.6678V266.344H4.50985V256.45H2.97985V267.874Z" fill="black"/>
</svg>
