<svg width="282" height="43" viewBox="0 0 282 43" fill="none" xmlns="http://www.w3.org/2000/svg">
<path d="M29.1681 19.6478C25.6641 19.6478 21.6321 21.2318 17.2161 23.5358L15.6321 24.3998C15.5841 23.3918 15.5361 22.4798 15.5361 21.8078V17.5838C17.4561 16.8158 19.0881 16.0478 19.6641 15.6638C20.7681 14.9918 21.2481 14.3678 21.2481 13.6958C21.2481 12.6398 20.5281 12.3038 19.6641 11.9678L18.8481 11.6798C17.9841 11.3438 16.4961 10.5278 15.6321 9.56779C15.7281 8.5598 16.1601 7.64779 16.1601 6.73579C16.1601 4.91179 13.3761 3.0878 11.6481 3.0878C10.7841 3.0878 8.00006 3.90379 8.00006 4.62379C8.00006 4.86379 8.33606 5.10379 8.91206 5.3438C10.0641 5.87179 11.0721 7.0238 11.3601 8.41579C11.4561 8.89579 11.5521 11.3918 11.6481 14.6078C9.92006 15.0398 8.14406 15.3278 7.08806 15.3278C5.93606 15.3278 4.06406 14.9438 3.34406 14.6558C2.86406 14.4638 2.43206 14.3678 2.14406 14.3678C1.85606 14.3678 1.71206 14.4638 1.71206 14.7038C1.71206 14.9438 1.90406 15.3278 2.28806 15.9038C3.92006 18.3038 5.40806 19.6958 7.80806 19.6958C8.81606 19.6958 10.2081 19.3598 11.7441 18.9278C11.7921 21.5198 11.8401 24.2078 11.8401 26.4638C11.6961 26.5598 11.5041 26.6558 11.3121 26.7518C9.53606 27.6638 7.80806 28.4318 6.12806 28.8158C5.45606 28.9598 4.59206 29.1038 3.72806 29.1038C2.43206 29.1038 0.560059 29.1518 0.560059 30.9758C0.560059 32.5598 2.48006 35.1038 4.20806 35.1038C5.69606 35.1038 7.76006 33.6158 8.57606 32.7998C8.81606 32.8958 10.4001 33.6158 10.5441 35.0558C10.6881 36.6398 11.1201 39.9038 13.0401 39.9038C15.2481 39.9038 16.1601 35.7278 16.1601 32.9438C16.1601 32.5118 15.9681 30.2558 15.8241 27.8078C20.0001 25.3598 24.9441 22.8638 27.5841 22.8638C29.2161 22.8638 31.1841 23.8238 31.1841 26.7518C31.1841 30.0638 27.5361 34.7678 23.7441 34.7678C21.6321 34.7678 20.0481 33.2318 20.0481 29.9198C20.0481 28.9598 20.2401 27.6158 20.3841 26.9438C20.4321 26.7518 20.4801 26.6078 20.4801 26.4638C20.4801 26.3678 20.4321 26.3198 20.3841 26.3198C20.2401 26.3198 19.7601 26.9438 19.1841 28.1438C18.6561 29.2478 18.4641 30.5438 18.4641 31.7918C18.4641 35.6798 21.1521 38.1758 24.9441 38.1758C30.8961 38.1758 36.8961 32.3198 36.8961 26.7998C36.8961 22.2398 33.4881 19.6478 29.1681 19.6478ZM41.0241 13.6958C40.1121 12.0158 36.8001 9.37579 33.0081 9.37579C31.3761 9.37579 29.6001 9.9038 27.9201 11.2478C27.2961 11.7278 27.0081 12.1118 27.0081 12.3038C27.0081 12.3998 27.0561 12.4478 27.2001 12.4478C27.4401 12.4478 28.4961 12.0638 30.1281 12.0638C32.2881 12.0638 34.4001 13.0238 34.4001 14.7518C34.4001 15.5678 33.8241 16.3838 33.3441 16.9598C33.0561 17.3438 32.8161 17.6318 32.8161 17.7278C32.8161 17.8238 32.8641 17.8718 32.9601 17.8718C33.0561 17.8718 33.3921 17.6798 34.1601 17.4878C34.7841 17.3438 35.3121 17.2958 35.8401 17.2958C37.3281 17.2958 38.4801 17.9678 39.3921 17.9678C40.5921 17.9678 41.6481 17.2478 41.6481 15.8558C41.6481 15.2318 41.4561 14.5118 41.0241 13.6958ZM15.5841 10.3838C16.1601 11.0078 16.7841 11.7278 16.7841 12.3038C16.7841 12.4478 16.7361 12.5918 16.6401 12.6878C16.4961 12.8798 16.1121 13.1198 15.5361 13.3598C15.5841 12.1598 15.5841 11.1518 15.5841 10.3838ZM11.8881 30.9758C11.8881 32.3198 11.7921 32.7038 11.4081 32.7038C11.2161 32.7038 10.9761 32.6558 10.6881 32.5118C10.2561 32.3198 9.77606 32.1278 9.39206 31.9358C9.96806 31.5038 10.8321 30.9278 11.8881 30.2078V30.9758ZM73.6161 12.8318C76.3041 11.1518 78.2241 9.18379 78.2241 7.69579C78.2241 6.44779 77.2161 5.3438 75.3921 5.3438C74.0481 5.3438 72.5121 5.77579 71.3121 5.77579C67.9041 5.77579 66.3681 2.70379 63.7281 2.70379C61.8561 2.70379 59.9841 4.57579 59.9841 5.9198C59.9841 7.5038 62.4321 9.18379 65.6481 10.9118C65.9361 11.0558 66.2721 11.2478 66.5601 11.4398C64.5441 12.1598 62.3361 12.8318 61.1841 12.8318C58.7361 12.8318 56.2401 11.8718 54.6081 10.2398C54.3681 9.99979 54.1761 9.9038 54.0321 9.9038C53.8401 9.9038 53.6961 10.0958 53.6961 10.3838C53.6961 12.2078 57.0081 16.5278 62.3361 16.5278C64.8801 16.5278 67.8081 15.7118 70.4961 14.4638C74.4321 17.9678 77.6961 22.2878 78.3681 23.4878C78.6081 23.9198 78.7521 24.3038 78.7521 24.6398C78.7521 24.9758 78.5121 25.2158 77.9841 25.2158C76.6881 25.2158 74.2881 23.5838 67.3281 23.5838H66.4641C60.4641 23.6798 55.4721 26.7518 55.4721 31.1678C55.4721 37.7918 63.9681 40.7198 70.3521 40.7198C73.3761 40.7198 75.9681 40.1918 75.9681 38.2238C75.9681 35.3438 72.0801 35.1518 69.2001 35.1518H68.0481C63.3921 35.1518 59.9841 33.3278 59.9841 30.8318C59.9841 29.4878 61.5201 26.3198 66.1281 26.3198C70.0641 26.3198 74.8161 28.2398 77.7441 30.3998C78.6561 31.0718 79.6641 31.3118 80.6721 31.3118C83.2641 31.3118 84.6561 29.1518 84.6561 26.8958C84.6561 23.2958 79.0401 17.3918 73.6161 12.8318ZM65.3121 6.63979C64.6881 6.25579 64.5921 5.87179 64.5921 5.53579C64.5921 5.15179 64.8321 4.86379 65.1681 4.86379H65.3121C65.9361 5.0078 69.6801 6.8798 71.1681 7.40779C71.6481 7.5518 71.8401 7.88779 71.8401 8.27179C71.8401 8.75179 71.6001 9.27979 70.7841 9.7118C70.6401 9.80779 70.4001 9.9038 70.1601 9.99979C68.1921 8.51179 66.4641 7.31179 65.3121 6.63979ZM121.28 12.3038C119.84 12.3038 118.208 12.4958 116.576 12.7838C116.768 12.1598 116.912 11.5838 117.008 11.0558C117.392 9.18379 118.544 8.6078 118.544 7.26379C118.544 4.28779 114.32 2.70379 112.016 2.70379C111.92 2.70379 111.056 2.70379 111.056 3.2318C111.056 3.42379 111.152 3.7118 111.392 3.99979C112.4 5.15179 112.928 6.25579 112.928 7.9838C112.928 8.46379 112.88 9.03979 112.784 9.66379C112.592 11.0558 112.304 12.3518 111.968 13.5998C110.144 13.9358 108.416 14.2238 107.12 14.2238C105.104 14.2238 103.808 14.1278 102.752 12.8318C102.416 12.3998 102.08 12.1598 101.84 12.1598C101.552 12.1598 101.408 12.6398 101.408 13.9358C101.408 17.3438 104 18.7838 106.304 18.7838C107.6 18.7838 108.992 18.5438 110.432 18.2558C108.032 24.2558 104.72 28.3358 103.184 30.1118C101.744 31.7438 100.688 32.9438 100.688 35.0558C100.688 36.3518 101.408 37.1678 102.656 37.1678C104.768 37.1678 107.216 33.5678 109.568 29.1518C111.584 25.3598 113.648 20.7998 115.136 16.9598C117.344 16.3358 119.264 15.7598 120.56 15.7598C121.952 15.7598 122.96 16.4318 122.96 18.7358C122.96 23.5358 119.216 34.2398 115.808 34.2398C114.608 34.2398 113.552 33.1838 112.4 31.8878C111.776 31.1678 111.392 30.9278 111.152 30.9278C111.008 30.9278 110.96 30.9758 110.96 31.1678C110.96 31.3598 111.056 31.6478 111.344 32.1278C112.4 33.7598 112.928 35.3438 113.264 36.7358C113.696 38.5118 114.032 39.7598 115.712 39.7598C116.576 39.7598 117.488 39.3278 117.968 39.0398C125.024 34.6718 127.184 21.5678 127.184 18.4958C127.184 14.3198 125.312 12.3038 121.28 12.3038ZM130.544 12.9758C130.16 12.9758 129.968 13.0238 129.968 13.1678C129.968 13.3118 130.112 13.4078 130.4 13.5518C130.688 13.6958 131.072 13.8398 131.6 14.0318C134.528 15.2318 136.88 17.9198 136.88 20.1758C136.88 22.6718 134.288 22.7198 132.032 22.7198C131.264 22.7198 130.832 22.8158 130.832 23.0078C130.832 23.1998 131.024 23.3438 131.408 23.3918C132.848 23.6318 133.76 23.8238 135.248 24.3998C137.456 25.2158 136.208 26.7518 138.896 26.7518C140.864 26.7518 142.4 24.7358 142.4 22.1918C142.4 16.9118 135.776 12.9758 130.544 12.9758ZM177.872 35.9678C175.28 35.9678 173.408 37.3598 168.08 37.3598C164.288 37.3598 161.744 36.2558 161.744 33.3758C161.744 27.6638 172.016 23.3918 176.24 23.0558C178.832 22.8638 180.224 22.0958 180.224 21.0878C180.224 19.8878 177.92 17.4398 175.712 17.4398C173.264 17.4398 171.488 20.3198 169.856 20.3198C168.32 20.3198 167.84 17.2478 167.84 14.4158C167.84 12.8798 167.984 11.3438 168.128 10.1918C168.56 6.78379 169.616 6.25579 169.616 5.0078C169.616 2.5118 166.688 0.735794 164.144 0.735794C163.28 0.735794 161.696 1.79179 161.696 2.31979C161.696 2.5118 161.888 2.70379 162.32 2.7998C163.808 3.2318 163.952 3.85579 163.952 6.3998C163.952 8.94379 163.616 12.4478 163.616 15.0878V16.0958C163.616 19.2638 164.72 21.0878 165.392 21.9038C165.68 22.2398 165.872 22.4318 166.112 22.6238C163.712 24.3998 157.52 27.9518 157.52 33.8078C157.52 40.7678 164.816 41.9198 171.584 41.9198C175.088 41.9198 182.192 41.8238 182.192 39.1358C182.192 37.5518 180.464 35.9678 177.872 35.9678ZM230.384 28.7678C230.192 25.4078 229.952 20.6558 229.808 17.0078C230.816 16.6718 231.728 16.2878 232.448 15.9038C234.56 14.7998 235.76 13.5038 235.76 12.1598C235.76 11.8718 235.712 11.6318 235.616 11.3438C235.04 9.85579 233.888 10.5758 231.392 9.42379C231.008 9.27979 230.672 8.99179 230.384 8.70379C230.528 7.93579 230.672 7.31179 230.672 6.83179C230.672 5.48779 228.704 4.09579 227.792 3.56779C227.408 3.32779 226.832 3.1358 226.208 3.1358C225.104 3.1358 222.416 3.90379 222.416 4.57579C222.416 4.8158 222.608 5.05579 223.136 5.3438C224.192 5.9678 225.344 6.11179 225.68 9.27979C225.776 10.0478 225.872 11.5838 225.968 13.5518C224.192 13.8878 222.512 14.1278 221.84 14.1278C219.152 14.1278 217.232 12.3038 216.464 12.3038C216.32 12.3038 216.224 12.3998 216.224 12.5918C216.224 12.8318 216.32 13.2158 216.56 13.7918C217.712 16.8638 219.824 18.1598 223.28 18.1598C224.192 18.1598 225.152 18.0638 226.16 17.8718C226.304 21.2318 226.4 24.9278 226.4 27.8558C225.728 27.8078 225.104 27.7598 224.432 27.7598C218.816 27.7598 214.112 30.3998 214.112 34.1438C214.112 36.2558 216.848 39.7598 222.8 39.7598C227.6 39.7598 230.336 37.5998 230.624 33.6158C231.776 34.4798 233.024 35.6318 234.368 37.1198C235.232 38.0798 236.192 38.3678 236.96 38.3678C238.16 38.3678 239.072 37.8878 239.072 36.1598C239.072 33.8558 235.328 30.4478 230.384 28.7678ZM212.096 17.1518C212 17.1518 211.808 17.3438 211.568 17.7758C208.256 23.4878 206.624 29.1998 205.808 29.1998C205.424 29.1998 205.328 26.7998 205.328 26.1278C205.328 24.2558 205.808 22.3358 206.912 18.7838C207.872 15.7598 209.36 14.3678 209.36 11.1038C209.36 6.25579 204.896 3.51979 203.312 3.51979C203.12 3.51979 203.024 3.56779 203.024 3.7598C203.024 4.28779 204.368 6.54379 204.368 8.89579C204.368 11.8238 203.312 15.3758 202.16 21.1358C201.584 24.0638 201.392 26.4638 201.392 28.4798C201.392 34.0478 203.984 40.2878 207.44 40.2878C208.304 40.2878 208.976 39.6638 208.976 37.9358C208.976 36.3998 208.16 35.3918 208.16 33.2318C208.16 30.8318 210.992 21.2798 211.904 18.5918C212.096 17.9678 212.192 17.5358 212.192 17.3438C212.192 17.1998 212.144 17.1518 212.096 17.1518ZM230.096 9.80779C230.432 10.1918 230.816 10.4798 231.2 10.7198C231.68 10.9598 231.92 11.1518 231.92 11.3438C231.92 11.7758 231.008 12.2078 229.712 12.5918C229.76 11.5838 229.952 10.6718 230.096 9.80779ZM221.792 36.3518C219.392 36.3518 217.376 35.2478 217.376 33.9518C217.376 32.0318 221.264 31.0238 223.28 31.0238C224.144 31.0238 225.2 31.1198 226.352 31.4558C226.064 35.5358 224.336 36.3518 221.792 36.3518ZM269.168 32.5598C269.696 32.5598 270.08 32.2718 270.08 31.5998C270.08 29.7758 270.32 27.3758 271.904 24.8318C275.84 18.6398 281.264 17.2478 281.264 10.2398C281.264 4.1438 275.984 0.591797 269.408 0.591797C262.688 0.591797 257.936 5.15179 257.936 10.6238C257.936 14.0318 259.76 17.1518 263.072 17.1518C266 17.1518 267.68 14.6558 267.68 12.4478C267.68 8.75179 264.704 9.37579 264.704 7.26379C264.704 5.3438 266.432 4.04779 268.928 4.04779C271.712 4.04779 273.872 6.11179 273.872 9.03979C273.872 11.8238 272.528 14.1278 271.088 16.5278C268.928 20.1758 267.824 22.3358 267.824 26.9438C267.824 29.1998 268.064 30.7358 268.256 31.5998C268.4 32.1278 268.688 32.5598 269.168 32.5598ZM269.552 42.9278C271.808 42.9278 273.632 41.1038 273.632 38.8478C273.632 36.5918 271.808 34.7678 269.552 34.7678C267.296 34.7678 265.472 36.5918 265.472 38.8478C265.472 41.1038 267.296 42.9278 269.552 42.9278Z" fill="black"/>
</svg>
